G04 #@! TF.FileFunction,Copper,L2,Inr,Signal*
%FSLAX46Y46*%
G04 Gerber Fmt 4.6, Leading zero omitted, Abs format (unit mm)*
G04 Created by KiCad (PCBNEW 4.0.1-stable) date 01/02/2016 19:28:03*
%MOMM*%
G01*
G04 APERTURE LIST*
%ADD10C,0.100000*%
%ADD11R,1.727200X1.727200*%
%ADD12O,1.727200X1.727200*%
%ADD13R,2.032000X1.727200*%
%ADD14O,2.032000X1.727200*%
%ADD15C,0.800000*%
%ADD16C,0.635000*%
%ADD17C,3.000000*%
%ADD18C,0.254000*%
G04 APERTURE END LIST*
D10*
D11*
X76730000Y-104320000D03*
D12*
X74190000Y-104320000D03*
X76730000Y-106860000D03*
X74190000Y-106860000D03*
X76730000Y-109400000D03*
X74190000Y-109400000D03*
X76730000Y-111940000D03*
X74190000Y-111940000D03*
X76730000Y-114480000D03*
X74190000Y-114480000D03*
X76730000Y-117020000D03*
X74190000Y-117020000D03*
X76730000Y-119560000D03*
X74190000Y-119560000D03*
X76730000Y-122100000D03*
X74190000Y-122100000D03*
X76730000Y-124640000D03*
X74190000Y-124640000D03*
X76730000Y-127180000D03*
X74190000Y-127180000D03*
X76730000Y-129720000D03*
X74190000Y-129720000D03*
X76730000Y-132260000D03*
X74190000Y-132260000D03*
D11*
X115570000Y-116840000D03*
D12*
X118110000Y-116840000D03*
X115570000Y-119380000D03*
X118110000Y-119380000D03*
X115570000Y-121920000D03*
X118110000Y-121920000D03*
X115570000Y-124460000D03*
X118110000Y-124460000D03*
X115570000Y-127000000D03*
X118110000Y-127000000D03*
X115570000Y-129540000D03*
X118110000Y-129540000D03*
X115570000Y-132080000D03*
X118110000Y-132080000D03*
D11*
X115570000Y-99060000D03*
D12*
X118110000Y-99060000D03*
X115570000Y-101600000D03*
X118110000Y-101600000D03*
D11*
X115570000Y-114300000D03*
D12*
X118110000Y-114300000D03*
D13*
X123190000Y-114300000D03*
D14*
X123190000Y-111760000D03*
X123190000Y-109220000D03*
X123190000Y-106680000D03*
X123190000Y-104140000D03*
D15*
X78100000Y-133300000D03*
X74000000Y-139200000D03*
D16*
X133780000Y-132170000D03*
X132230000Y-132210000D03*
X131800000Y-141150000D03*
X102000000Y-93100000D03*
X93600000Y-92750000D03*
X95250000Y-92750000D03*
X92100000Y-92750000D03*
X90000000Y-93400000D03*
D15*
X133500000Y-102000000D03*
X133500000Y-103500000D03*
X133500000Y-105500000D03*
X133825000Y-124375000D03*
X133775000Y-130150000D03*
X122700000Y-137950000D03*
D16*
X112625000Y-132700000D03*
X111350000Y-136100000D03*
D15*
X117175000Y-137250000D03*
X133150000Y-135875000D03*
X130300000Y-138225000D03*
X126275000Y-138075000D03*
X134125000Y-93475000D03*
X127150000Y-93400000D03*
X124800000Y-127025000D03*
X121100000Y-131800000D03*
D16*
X76500000Y-140000000D03*
X81500000Y-139500000D03*
X85400000Y-136000000D03*
D15*
X107975000Y-99000000D03*
X113800000Y-105500000D03*
X123190000Y-98125000D03*
X123190000Y-95700000D03*
X115775000Y-104725000D03*
X109800000Y-104700000D03*
X100100000Y-94875000D03*
X101275000Y-95900000D03*
X104175000Y-97450000D03*
X104175000Y-99025000D03*
X106650000Y-101775000D03*
X106625000Y-103125000D03*
X106600000Y-104600000D03*
X119000000Y-107500000D03*
X122500000Y-117000000D03*
D16*
X124450000Y-122100000D03*
D15*
X125500000Y-121500000D03*
X132000000Y-121500000D03*
D16*
X133875000Y-114525000D03*
D15*
X130000000Y-106000000D03*
X132500000Y-108500000D03*
X133500000Y-112000000D03*
D16*
X97950000Y-93100000D03*
D15*
X123000000Y-94500000D03*
X115500000Y-94500000D03*
X106500000Y-94500000D03*
D16*
X87500000Y-111500000D03*
X81150000Y-110225000D03*
X89850000Y-118750000D03*
X90075000Y-116275000D03*
D15*
X87675000Y-117375000D03*
D16*
X89850000Y-123925000D03*
X89850000Y-121825000D03*
X81175000Y-115300000D03*
X86500000Y-119000000D03*
X78500000Y-127000000D03*
X92000000Y-98000000D03*
X89000000Y-98000000D03*
X85350000Y-96150000D03*
X95000000Y-96000000D03*
X96000000Y-97500000D03*
X98000000Y-100500000D03*
X100000000Y-102500000D03*
X98000000Y-105000000D03*
X95000000Y-106500000D03*
X93000000Y-108000000D03*
X96500000Y-111950000D03*
X83075000Y-122075000D03*
X83325000Y-126575000D03*
X79800000Y-126275000D03*
X79950000Y-129775000D03*
X133575000Y-128325000D03*
X127125000Y-128100000D03*
X127425000Y-125800000D03*
X111525000Y-124350000D03*
X105375000Y-129825000D03*
X90570000Y-139670000D03*
X92100000Y-139650000D03*
X86850000Y-99600000D03*
X74850000Y-137525000D03*
X100064000Y-119175000D03*
X130412500Y-131537500D03*
X127525000Y-96225000D03*
X132325000Y-101625000D03*
X128075000Y-102200000D03*
X125337500Y-100312500D03*
X127425000Y-99050000D03*
X125275000Y-102150000D03*
X127100000Y-103800000D03*
X127150000Y-112275000D03*
X133652000Y-118250000D03*
X111800000Y-121900000D03*
X104450000Y-108800000D03*
X115442000Y-107442000D03*
X114450000Y-111950000D03*
X77967000Y-137517000D03*
X81175000Y-121750000D03*
X76675000Y-96775000D03*
X73950000Y-99225000D03*
X83350000Y-92775000D03*
X84925000Y-92750000D03*
X103575000Y-134875000D03*
X103375000Y-137375000D03*
X103575000Y-131975000D03*
X105375000Y-128250000D03*
X105375000Y-132625000D03*
X105375000Y-136475000D03*
X104537500Y-139137500D03*
X99075000Y-126525000D03*
X103125000Y-126375000D03*
X105375000Y-126375000D03*
X101975000Y-139450000D03*
X98225000Y-130600000D03*
X94675000Y-124700000D03*
X95775000Y-127350000D03*
X94675000Y-121375000D03*
X95375000Y-137775000D03*
X90750000Y-136850000D03*
X87650000Y-139650000D03*
D17*
X91440000Y-134112000D03*
D16*
X86064000Y-122761000D03*
X89450000Y-125120000D03*
X85610000Y-125950000D03*
X85610000Y-129150000D03*
X84700000Y-130006000D03*
X85575000Y-134100000D03*
X88325000Y-132725000D03*
X84600000Y-131850000D03*
X83400000Y-132050000D03*
X98114000Y-131936000D03*
X98150000Y-133675000D03*
X106800000Y-124825000D03*
X111775000Y-118800000D03*
X109350000Y-112625000D03*
X96437500Y-116987500D03*
X87675000Y-93200000D03*
X82410000Y-96150000D03*
X82410000Y-94475000D03*
X79350000Y-99556000D03*
X81660000Y-99990000D03*
X82210000Y-101100000D03*
X83450000Y-103050000D03*
X86572000Y-107850000D03*
X88425000Y-107900000D03*
X89950000Y-108250000D03*
X86390000Y-101710000D03*
D17*
X89408000Y-101092000D03*
D16*
X92525000Y-100050000D03*
X96175000Y-99440000D03*
X100425000Y-108450000D03*
D15*
X124470000Y-130740000D03*
X112284000Y-105650000D03*
D16*
X107387500Y-118362500D03*
X106100000Y-118150000D03*
X106230000Y-116375000D03*
X98200000Y-117675000D03*
X96400000Y-120050000D03*
X98300000Y-120575000D03*
D15*
X91725000Y-112300000D03*
D16*
X97093000Y-133243000D03*
X108300000Y-124875000D03*
X96125000Y-100540000D03*
X96125000Y-100550000D03*
X96900000Y-108300000D03*
X107150000Y-107900000D03*
X109250000Y-111800000D03*
X111613000Y-108113000D03*
X109350000Y-118375000D03*
X132300000Y-103000000D03*
X117010000Y-140060000D03*
X126700000Y-122700000D03*
X126700000Y-124600000D03*
X78950000Y-134150000D03*
X79917000Y-136567000D03*
X127000000Y-114250000D03*
X130100000Y-114175000D03*
X89425000Y-139575000D03*
X88125000Y-136362000D03*
D15*
X88725000Y-114800000D03*
X88700000Y-112700000D03*
D16*
X87400000Y-106525000D03*
X88575000Y-131075000D03*
X88213000Y-133862000D03*
X86500000Y-103620000D03*
X86360000Y-100290000D03*
X86040000Y-98842000D03*
X78900000Y-139350000D03*
X83098000Y-131052000D03*
X84676000Y-113464000D03*
X84330000Y-119790000D03*
X84587500Y-105787500D03*
X82260000Y-125420000D03*
X81170000Y-117870000D03*
X81170000Y-119150000D03*
X120300000Y-133900000D03*
X93450000Y-105850000D03*
X107855000Y-115570000D03*
X107725000Y-119375000D03*
X107800000Y-117100000D03*
X97450000Y-118400000D03*
X83830000Y-103850000D03*
X85802000Y-136862000D03*
X103210000Y-123890000D03*
D18*
G36*
X135569000Y-141569000D02*
X132368959Y-141569000D01*
X132391814Y-141546185D01*
X132498378Y-141289550D01*
X132498621Y-141011669D01*
X132392504Y-140754849D01*
X132196185Y-140558186D01*
X131939550Y-140451622D01*
X131661669Y-140451379D01*
X131404849Y-140557496D01*
X131208186Y-140753815D01*
X131101622Y-141010450D01*
X131101379Y-141288331D01*
X131207496Y-141545151D01*
X131231303Y-141569000D01*
X73431000Y-141569000D01*
X73431000Y-139735473D01*
X73557021Y-139861714D01*
X73843968Y-139980864D01*
X74154669Y-139981136D01*
X74441823Y-139862486D01*
X74661714Y-139642979D01*
X74725929Y-139488331D01*
X78201379Y-139488331D01*
X78307496Y-139745151D01*
X78503815Y-139941814D01*
X78760450Y-140048378D01*
X79038331Y-140048621D01*
X79295151Y-139942504D01*
X79491814Y-139746185D01*
X79505456Y-139713331D01*
X88726379Y-139713331D01*
X88832496Y-139970151D01*
X89028815Y-140166814D01*
X89285450Y-140273378D01*
X89563331Y-140273621D01*
X89745544Y-140198331D01*
X116311379Y-140198331D01*
X116417496Y-140455151D01*
X116613815Y-140651814D01*
X116870450Y-140758378D01*
X117148331Y-140758621D01*
X117405151Y-140652504D01*
X117601814Y-140456185D01*
X117708378Y-140199550D01*
X117708621Y-139921669D01*
X117602504Y-139664849D01*
X117406185Y-139468186D01*
X117149550Y-139361622D01*
X116871669Y-139361379D01*
X116614849Y-139467496D01*
X116418186Y-139663815D01*
X116311622Y-139920450D01*
X116311379Y-140198331D01*
X89745544Y-140198331D01*
X89820151Y-140167504D01*
X90016814Y-139971185D01*
X90123378Y-139714550D01*
X90123621Y-139436669D01*
X90017504Y-139179849D01*
X89821185Y-138983186D01*
X89564550Y-138876622D01*
X89286669Y-138876379D01*
X89029849Y-138982496D01*
X88833186Y-139178815D01*
X88726622Y-139435450D01*
X88726379Y-139713331D01*
X79505456Y-139713331D01*
X79598378Y-139489550D01*
X79598621Y-139211669D01*
X79492504Y-138954849D01*
X79296185Y-138758186D01*
X79039550Y-138651622D01*
X78761669Y-138651379D01*
X78504849Y-138757496D01*
X78308186Y-138953815D01*
X78201622Y-139210450D01*
X78201379Y-139488331D01*
X74725929Y-139488331D01*
X74780864Y-139356032D01*
X74781136Y-139045331D01*
X74662486Y-138758177D01*
X74442979Y-138538286D01*
X74156032Y-138419136D01*
X73845331Y-138418864D01*
X73558177Y-138537514D01*
X73431000Y-138664469D01*
X73431000Y-136705331D01*
X79218379Y-136705331D01*
X79324496Y-136962151D01*
X79520815Y-137158814D01*
X79777450Y-137265378D01*
X80055331Y-137265621D01*
X80312151Y-137159504D01*
X80471602Y-137000331D01*
X85103379Y-137000331D01*
X85209496Y-137257151D01*
X85405815Y-137453814D01*
X85662450Y-137560378D01*
X85940331Y-137560621D01*
X86197151Y-137454504D01*
X86393814Y-137258185D01*
X86500378Y-137001550D01*
X86500621Y-136723669D01*
X86408339Y-136500331D01*
X87426379Y-136500331D01*
X87532496Y-136757151D01*
X87728815Y-136953814D01*
X87985450Y-137060378D01*
X88263331Y-137060621D01*
X88520151Y-136954504D01*
X88716814Y-136758185D01*
X88823378Y-136501550D01*
X88823621Y-136223669D01*
X88717504Y-135966849D01*
X88521185Y-135770186D01*
X88264550Y-135663622D01*
X87986669Y-135663379D01*
X87729849Y-135769496D01*
X87533186Y-135965815D01*
X87426622Y-136222450D01*
X87426379Y-136500331D01*
X86408339Y-136500331D01*
X86394504Y-136466849D01*
X86198185Y-136270186D01*
X85941550Y-136163622D01*
X85663669Y-136163379D01*
X85406849Y-136269496D01*
X85210186Y-136465815D01*
X85103622Y-136722450D01*
X85103379Y-137000331D01*
X80471602Y-137000331D01*
X80508814Y-136963185D01*
X80615378Y-136706550D01*
X80615621Y-136428669D01*
X80509504Y-136171849D01*
X80313185Y-135975186D01*
X80056550Y-135868622D01*
X79778669Y-135868379D01*
X79521849Y-135974496D01*
X79325186Y-136170815D01*
X79218622Y-136427450D01*
X79218379Y-136705331D01*
X73431000Y-136705331D01*
X73431000Y-133237250D01*
X73689329Y-133409860D01*
X74165617Y-133504600D01*
X74214383Y-133504600D01*
X74690671Y-133409860D01*
X75094448Y-133140065D01*
X75339159Y-132773828D01*
X75447312Y-133034947D01*
X75841510Y-133466821D01*
X76370973Y-133714968D01*
X76603000Y-133594469D01*
X76603000Y-132387000D01*
X76857000Y-132387000D01*
X76857000Y-133594469D01*
X77089027Y-133714968D01*
X77371681Y-133582495D01*
X77437514Y-133741823D01*
X77657021Y-133961714D01*
X77943968Y-134080864D01*
X78251560Y-134081133D01*
X78251379Y-134288331D01*
X78357496Y-134545151D01*
X78553815Y-134741814D01*
X78810450Y-134848378D01*
X79088331Y-134848621D01*
X79345151Y-134742504D01*
X79541814Y-134546185D01*
X79648378Y-134289550D01*
X79648621Y-134011669D01*
X79643937Y-134000331D01*
X87514379Y-134000331D01*
X87620496Y-134257151D01*
X87816815Y-134453814D01*
X88073450Y-134560378D01*
X88351331Y-134560621D01*
X88608151Y-134454504D01*
X88804814Y-134258185D01*
X88896105Y-134038331D01*
X119601379Y-134038331D01*
X119707496Y-134295151D01*
X119903815Y-134491814D01*
X120160450Y-134598378D01*
X120438331Y-134598621D01*
X120695151Y-134492504D01*
X120891814Y-134296185D01*
X120998378Y-134039550D01*
X120998621Y-133761669D01*
X120892504Y-133504849D01*
X120696185Y-133308186D01*
X120439550Y-133201622D01*
X120161669Y-133201379D01*
X119904849Y-133307496D01*
X119708186Y-133503815D01*
X119601622Y-133760450D01*
X119601379Y-134038331D01*
X88896105Y-134038331D01*
X88911378Y-134001550D01*
X88911621Y-133723669D01*
X88805504Y-133466849D01*
X88720136Y-133381331D01*
X96394379Y-133381331D01*
X96500496Y-133638151D01*
X96696815Y-133834814D01*
X96953450Y-133941378D01*
X97231331Y-133941621D01*
X97488151Y-133835504D01*
X97684814Y-133639185D01*
X97791378Y-133382550D01*
X97791621Y-133104669D01*
X97685504Y-132847849D01*
X97489185Y-132651186D01*
X97232550Y-132544622D01*
X96954669Y-132544379D01*
X96697849Y-132650496D01*
X96501186Y-132846815D01*
X96394622Y-133103450D01*
X96394379Y-133381331D01*
X88720136Y-133381331D01*
X88609185Y-133270186D01*
X88352550Y-133163622D01*
X88074669Y-133163379D01*
X87817849Y-133269496D01*
X87621186Y-133465815D01*
X87514622Y-133722450D01*
X87514379Y-134000331D01*
X79643937Y-134000331D01*
X79542504Y-133754849D01*
X79346185Y-133558186D01*
X79089550Y-133451622D01*
X78880868Y-133451440D01*
X78881136Y-133145331D01*
X78762486Y-132858177D01*
X78542979Y-132638286D01*
X78256032Y-132519136D01*
X78132749Y-132519028D01*
X78063817Y-132387000D01*
X76857000Y-132387000D01*
X76603000Y-132387000D01*
X76583000Y-132387000D01*
X76583000Y-132133000D01*
X76603000Y-132133000D01*
X76603000Y-132113000D01*
X76857000Y-132113000D01*
X76857000Y-132133000D01*
X78063817Y-132133000D01*
X78091488Y-132080000D01*
X114301017Y-132080000D01*
X114395757Y-132556288D01*
X114665552Y-132960065D01*
X115069329Y-133229860D01*
X115545617Y-133324600D01*
X115594383Y-133324600D01*
X116070671Y-133229860D01*
X116474448Y-132960065D01*
X116744243Y-132556288D01*
X116838983Y-132080000D01*
X116744243Y-131603712D01*
X116474448Y-131199935D01*
X116070671Y-130930140D01*
X115594383Y-130835400D01*
X115545617Y-130835400D01*
X115069329Y-130930140D01*
X114665552Y-131199935D01*
X114395757Y-131603712D01*
X114301017Y-132080000D01*
X78091488Y-132080000D01*
X78184958Y-131900974D01*
X78012688Y-131485053D01*
X77743678Y-131190331D01*
X82399379Y-131190331D01*
X82505496Y-131447151D01*
X82701815Y-131643814D01*
X82958450Y-131750378D01*
X83236331Y-131750621D01*
X83493151Y-131644504D01*
X83689814Y-131448185D01*
X83787333Y-131213331D01*
X87876379Y-131213331D01*
X87982496Y-131470151D01*
X88178815Y-131666814D01*
X88435450Y-131773378D01*
X88713331Y-131773621D01*
X88970151Y-131667504D01*
X89166814Y-131471185D01*
X89273378Y-131214550D01*
X89273621Y-130936669D01*
X89167504Y-130679849D01*
X88971185Y-130483186D01*
X88714550Y-130376622D01*
X88436669Y-130376379D01*
X88179849Y-130482496D01*
X87983186Y-130678815D01*
X87876622Y-130935450D01*
X87876379Y-131213331D01*
X83787333Y-131213331D01*
X83796378Y-131191550D01*
X83796621Y-130913669D01*
X83690504Y-130656849D01*
X83494185Y-130460186D01*
X83237550Y-130353622D01*
X82959669Y-130353379D01*
X82702849Y-130459496D01*
X82506186Y-130655815D01*
X82399622Y-130912450D01*
X82399379Y-131190331D01*
X77743678Y-131190331D01*
X77618490Y-131053179D01*
X77228338Y-130870324D01*
X77230671Y-130869860D01*
X77634448Y-130600065D01*
X77904243Y-130196288D01*
X77998983Y-129720000D01*
X77963179Y-129540000D01*
X114301017Y-129540000D01*
X114395757Y-130016288D01*
X114665552Y-130420065D01*
X115069329Y-130689860D01*
X115545617Y-130784600D01*
X115594383Y-130784600D01*
X116070671Y-130689860D01*
X116474448Y-130420065D01*
X116719159Y-130053828D01*
X116827312Y-130314947D01*
X117221510Y-130746821D01*
X117611662Y-130929676D01*
X117609329Y-130930140D01*
X117205552Y-131199935D01*
X116935757Y-131603712D01*
X116841017Y-132080000D01*
X116935757Y-132556288D01*
X117205552Y-132960065D01*
X117609329Y-133229860D01*
X118085617Y-133324600D01*
X118134383Y-133324600D01*
X118610671Y-133229860D01*
X119014448Y-132960065D01*
X119284243Y-132556288D01*
X119325608Y-132348331D01*
X131531379Y-132348331D01*
X131637496Y-132605151D01*
X131833815Y-132801814D01*
X132090450Y-132908378D01*
X132368331Y-132908621D01*
X132625151Y-132802504D01*
X132821814Y-132606185D01*
X132928378Y-132349550D01*
X132928414Y-132308331D01*
X133081379Y-132308331D01*
X133187496Y-132565151D01*
X133383815Y-132761814D01*
X133640450Y-132868378D01*
X133918331Y-132868621D01*
X134175151Y-132762504D01*
X134371814Y-132566185D01*
X134478378Y-132309550D01*
X134478621Y-132031669D01*
X134372504Y-131774849D01*
X134176185Y-131578186D01*
X133919550Y-131471622D01*
X133641669Y-131471379D01*
X133384849Y-131577496D01*
X133188186Y-131773815D01*
X133081622Y-132030450D01*
X133081379Y-132308331D01*
X132928414Y-132308331D01*
X132928621Y-132071669D01*
X132822504Y-131814849D01*
X132626185Y-131618186D01*
X132369550Y-131511622D01*
X132091669Y-131511379D01*
X131834849Y-131617496D01*
X131638186Y-131813815D01*
X131531622Y-132070450D01*
X131531379Y-132348331D01*
X119325608Y-132348331D01*
X119378983Y-132080000D01*
X119284243Y-131603712D01*
X119014448Y-131199935D01*
X118610671Y-130930140D01*
X118608338Y-130929676D01*
X118683031Y-130894669D01*
X123688864Y-130894669D01*
X123807514Y-131181823D01*
X124027021Y-131401714D01*
X124313968Y-131520864D01*
X124624669Y-131521136D01*
X124911823Y-131402486D01*
X125131714Y-131182979D01*
X125250864Y-130896032D01*
X125251136Y-130585331D01*
X125132486Y-130298177D01*
X124912979Y-130078286D01*
X124626032Y-129959136D01*
X124315331Y-129958864D01*
X124028177Y-130077514D01*
X123808286Y-130297021D01*
X123689136Y-130583968D01*
X123688864Y-130894669D01*
X118683031Y-130894669D01*
X118998490Y-130746821D01*
X119392688Y-130314947D01*
X119564958Y-129899026D01*
X119443817Y-129667000D01*
X118237000Y-129667000D01*
X118237000Y-129687000D01*
X117983000Y-129687000D01*
X117983000Y-129667000D01*
X117963000Y-129667000D01*
X117963000Y-129413000D01*
X117983000Y-129413000D01*
X117983000Y-129393000D01*
X118237000Y-129393000D01*
X118237000Y-129413000D01*
X119443817Y-129413000D01*
X119564958Y-129180974D01*
X119392688Y-128765053D01*
X118998490Y-128333179D01*
X118608338Y-128150324D01*
X118610671Y-128149860D01*
X119014448Y-127880065D01*
X119284243Y-127476288D01*
X119378983Y-127000000D01*
X119284243Y-126523712D01*
X119014448Y-126119935D01*
X118610671Y-125850140D01*
X118134383Y-125755400D01*
X118085617Y-125755400D01*
X117609329Y-125850140D01*
X117205552Y-126119935D01*
X116935757Y-126523712D01*
X116841017Y-127000000D01*
X116935757Y-127476288D01*
X117205552Y-127880065D01*
X117609329Y-128149860D01*
X117611662Y-128150324D01*
X117221510Y-128333179D01*
X116827312Y-128765053D01*
X116719159Y-129026172D01*
X116474448Y-128659935D01*
X116070671Y-128390140D01*
X115594383Y-128295400D01*
X115545617Y-128295400D01*
X115069329Y-128390140D01*
X114665552Y-128659935D01*
X114395757Y-129063712D01*
X114301017Y-129540000D01*
X77963179Y-129540000D01*
X77904243Y-129243712D01*
X77634448Y-128839935D01*
X77230671Y-128570140D01*
X76754383Y-128475400D01*
X76705617Y-128475400D01*
X76229329Y-128570140D01*
X75825552Y-128839935D01*
X75555757Y-129243712D01*
X75461017Y-129720000D01*
X75555757Y-130196288D01*
X75825552Y-130600065D01*
X76229329Y-130869860D01*
X76231662Y-130870324D01*
X75841510Y-131053179D01*
X75447312Y-131485053D01*
X75339159Y-131746172D01*
X75094448Y-131379935D01*
X74690671Y-131110140D01*
X74214383Y-131015400D01*
X74165617Y-131015400D01*
X73689329Y-131110140D01*
X73431000Y-131282750D01*
X73431000Y-130697250D01*
X73689329Y-130869860D01*
X74165617Y-130964600D01*
X74214383Y-130964600D01*
X74690671Y-130869860D01*
X75094448Y-130600065D01*
X75364243Y-130196288D01*
X75458983Y-129720000D01*
X75364243Y-129243712D01*
X75094448Y-128839935D01*
X74690671Y-128570140D01*
X74688338Y-128569676D01*
X75078490Y-128386821D01*
X75472688Y-127954947D01*
X75580841Y-127693828D01*
X75825552Y-128060065D01*
X76229329Y-128329860D01*
X76705617Y-128424600D01*
X76754383Y-128424600D01*
X77230671Y-128329860D01*
X77634448Y-128060065D01*
X77904243Y-127656288D01*
X77998983Y-127180000D01*
X77963179Y-127000000D01*
X114301017Y-127000000D01*
X114395757Y-127476288D01*
X114665552Y-127880065D01*
X115069329Y-128149860D01*
X115545617Y-128244600D01*
X115594383Y-128244600D01*
X116070671Y-128149860D01*
X116474448Y-127880065D01*
X116744243Y-127476288D01*
X116838983Y-127000000D01*
X116744243Y-126523712D01*
X116474448Y-126119935D01*
X116070671Y-125850140D01*
X115594383Y-125755400D01*
X115545617Y-125755400D01*
X115069329Y-125850140D01*
X114665552Y-126119935D01*
X114395757Y-126523712D01*
X114301017Y-127000000D01*
X77963179Y-127000000D01*
X77904243Y-126703712D01*
X77634448Y-126299935D01*
X77230671Y-126030140D01*
X76754383Y-125935400D01*
X76705617Y-125935400D01*
X76229329Y-126030140D01*
X75825552Y-126299935D01*
X75580841Y-126666172D01*
X75472688Y-126405053D01*
X75078490Y-125973179D01*
X74688338Y-125790324D01*
X74690671Y-125789860D01*
X75094448Y-125520065D01*
X75364243Y-125116288D01*
X75458983Y-124640000D01*
X75461017Y-124640000D01*
X75555757Y-125116288D01*
X75825552Y-125520065D01*
X76229329Y-125789860D01*
X76705617Y-125884600D01*
X76754383Y-125884600D01*
X77230671Y-125789860D01*
X77577178Y-125558331D01*
X81561379Y-125558331D01*
X81667496Y-125815151D01*
X81863815Y-126011814D01*
X82120450Y-126118378D01*
X82398331Y-126118621D01*
X82655151Y-126012504D01*
X82851814Y-125816185D01*
X82958378Y-125559550D01*
X82958621Y-125281669D01*
X82852504Y-125024849D01*
X82841007Y-125013331D01*
X107601379Y-125013331D01*
X107707496Y-125270151D01*
X107903815Y-125466814D01*
X108160450Y-125573378D01*
X108438331Y-125573621D01*
X108695151Y-125467504D01*
X108891814Y-125271185D01*
X108998378Y-125014550D01*
X108998621Y-124736669D01*
X108892504Y-124479849D01*
X108872690Y-124460000D01*
X114301017Y-124460000D01*
X114395757Y-124936288D01*
X114665552Y-125340065D01*
X115069329Y-125609860D01*
X115545617Y-125704600D01*
X115594383Y-125704600D01*
X116070671Y-125609860D01*
X116474448Y-125340065D01*
X116744243Y-124936288D01*
X116838983Y-124460000D01*
X116841017Y-124460000D01*
X116935757Y-124936288D01*
X117205552Y-125340065D01*
X117609329Y-125609860D01*
X118085617Y-125704600D01*
X118134383Y-125704600D01*
X118610671Y-125609860D01*
X119014448Y-125340065D01*
X119284243Y-124936288D01*
X119323619Y-124738331D01*
X126001379Y-124738331D01*
X126107496Y-124995151D01*
X126303815Y-125191814D01*
X126560450Y-125298378D01*
X126838331Y-125298621D01*
X127095151Y-125192504D01*
X127291814Y-124996185D01*
X127398378Y-124739550D01*
X127398621Y-124461669D01*
X127292504Y-124204849D01*
X127096185Y-124008186D01*
X126839550Y-123901622D01*
X126561669Y-123901379D01*
X126304849Y-124007496D01*
X126108186Y-124203815D01*
X126001622Y-124460450D01*
X126001379Y-124738331D01*
X119323619Y-124738331D01*
X119378983Y-124460000D01*
X119284243Y-123983712D01*
X119014448Y-123579935D01*
X118610671Y-123310140D01*
X118134383Y-123215400D01*
X118085617Y-123215400D01*
X117609329Y-123310140D01*
X117205552Y-123579935D01*
X116935757Y-123983712D01*
X116841017Y-124460000D01*
X116838983Y-124460000D01*
X116744243Y-123983712D01*
X116474448Y-123579935D01*
X116070671Y-123310140D01*
X115594383Y-123215400D01*
X115545617Y-123215400D01*
X115069329Y-123310140D01*
X114665552Y-123579935D01*
X114395757Y-123983712D01*
X114301017Y-124460000D01*
X108872690Y-124460000D01*
X108696185Y-124283186D01*
X108439550Y-124176622D01*
X108161669Y-124176379D01*
X107904849Y-124282496D01*
X107708186Y-124478815D01*
X107601622Y-124735450D01*
X107601379Y-125013331D01*
X82841007Y-125013331D01*
X82656185Y-124828186D01*
X82399550Y-124721622D01*
X82121669Y-124721379D01*
X81864849Y-124827496D01*
X81668186Y-125023815D01*
X81561622Y-125280450D01*
X81561379Y-125558331D01*
X77577178Y-125558331D01*
X77634448Y-125520065D01*
X77904243Y-125116288D01*
X77998983Y-124640000D01*
X77904243Y-124163712D01*
X77813785Y-124028331D01*
X102511379Y-124028331D01*
X102617496Y-124285151D01*
X102813815Y-124481814D01*
X103070450Y-124588378D01*
X103348331Y-124588621D01*
X103605151Y-124482504D01*
X103801814Y-124286185D01*
X103908378Y-124029550D01*
X103908621Y-123751669D01*
X103802504Y-123494849D01*
X103606185Y-123298186D01*
X103349550Y-123191622D01*
X103071669Y-123191379D01*
X102814849Y-123297496D01*
X102618186Y-123493815D01*
X102511622Y-123750450D01*
X102511379Y-124028331D01*
X77813785Y-124028331D01*
X77634448Y-123759935D01*
X77230671Y-123490140D01*
X76754383Y-123395400D01*
X76705617Y-123395400D01*
X76229329Y-123490140D01*
X75825552Y-123759935D01*
X75555757Y-124163712D01*
X75461017Y-124640000D01*
X75458983Y-124640000D01*
X75364243Y-124163712D01*
X75094448Y-123759935D01*
X74690671Y-123490140D01*
X74214383Y-123395400D01*
X74165617Y-123395400D01*
X73689329Y-123490140D01*
X73431000Y-123662750D01*
X73431000Y-123077250D01*
X73689329Y-123249860D01*
X74165617Y-123344600D01*
X74214383Y-123344600D01*
X74690671Y-123249860D01*
X75094448Y-122980065D01*
X75364243Y-122576288D01*
X75458983Y-122100000D01*
X75461017Y-122100000D01*
X75555757Y-122576288D01*
X75825552Y-122980065D01*
X76229329Y-123249860D01*
X76705617Y-123344600D01*
X76754383Y-123344600D01*
X77230671Y-123249860D01*
X77634448Y-122980065D01*
X77904243Y-122576288D01*
X77998983Y-122100000D01*
X77963179Y-121920000D01*
X114301017Y-121920000D01*
X114395757Y-122396288D01*
X114665552Y-122800065D01*
X115069329Y-123069860D01*
X115545617Y-123164600D01*
X115594383Y-123164600D01*
X116070671Y-123069860D01*
X116474448Y-122800065D01*
X116744243Y-122396288D01*
X116838983Y-121920000D01*
X116841017Y-121920000D01*
X116935757Y-122396288D01*
X117205552Y-122800065D01*
X117609329Y-123069860D01*
X118085617Y-123164600D01*
X118134383Y-123164600D01*
X118610671Y-123069860D01*
X118957178Y-122838331D01*
X126001379Y-122838331D01*
X126107496Y-123095151D01*
X126303815Y-123291814D01*
X126560450Y-123398378D01*
X126838331Y-123398621D01*
X127095151Y-123292504D01*
X127291814Y-123096185D01*
X127398378Y-122839550D01*
X127398621Y-122561669D01*
X127292504Y-122304849D01*
X127096185Y-122108186D01*
X126839550Y-122001622D01*
X126561669Y-122001379D01*
X126304849Y-122107496D01*
X126108186Y-122303815D01*
X126001622Y-122560450D01*
X126001379Y-122838331D01*
X118957178Y-122838331D01*
X119014448Y-122800065D01*
X119284243Y-122396288D01*
X119378983Y-121920000D01*
X119284243Y-121443712D01*
X119014448Y-121039935D01*
X118610671Y-120770140D01*
X118134383Y-120675400D01*
X118085617Y-120675400D01*
X117609329Y-120770140D01*
X117205552Y-121039935D01*
X116935757Y-121443712D01*
X116841017Y-121920000D01*
X116838983Y-121920000D01*
X116744243Y-121443712D01*
X116474448Y-121039935D01*
X116070671Y-120770140D01*
X115594383Y-120675400D01*
X115545617Y-120675400D01*
X115069329Y-120770140D01*
X114665552Y-121039935D01*
X114395757Y-121443712D01*
X114301017Y-121920000D01*
X77963179Y-121920000D01*
X77904243Y-121623712D01*
X77634448Y-121219935D01*
X77230671Y-120950140D01*
X76754383Y-120855400D01*
X76705617Y-120855400D01*
X76229329Y-120950140D01*
X75825552Y-121219935D01*
X75555757Y-121623712D01*
X75461017Y-122100000D01*
X75458983Y-122100000D01*
X75364243Y-121623712D01*
X75094448Y-121219935D01*
X74690671Y-120950140D01*
X74214383Y-120855400D01*
X74165617Y-120855400D01*
X73689329Y-120950140D01*
X73431000Y-121122750D01*
X73431000Y-120537250D01*
X73689329Y-120709860D01*
X74165617Y-120804600D01*
X74214383Y-120804600D01*
X74690671Y-120709860D01*
X75094448Y-120440065D01*
X75364243Y-120036288D01*
X75458983Y-119560000D01*
X75461017Y-119560000D01*
X75555757Y-120036288D01*
X75825552Y-120440065D01*
X76229329Y-120709860D01*
X76705617Y-120804600D01*
X76754383Y-120804600D01*
X77230671Y-120709860D01*
X77634448Y-120440065D01*
X77904243Y-120036288D01*
X77925717Y-119928331D01*
X83631379Y-119928331D01*
X83737496Y-120185151D01*
X83933815Y-120381814D01*
X84190450Y-120488378D01*
X84468331Y-120488621D01*
X84725151Y-120382504D01*
X84919664Y-120188331D01*
X95701379Y-120188331D01*
X95807496Y-120445151D01*
X96003815Y-120641814D01*
X96260450Y-120748378D01*
X96538331Y-120748621D01*
X96623738Y-120713331D01*
X97601379Y-120713331D01*
X97707496Y-120970151D01*
X97903815Y-121166814D01*
X98160450Y-121273378D01*
X98438331Y-121273621D01*
X98695151Y-121167504D01*
X98891814Y-120971185D01*
X98998378Y-120714550D01*
X98998621Y-120436669D01*
X98892504Y-120179849D01*
X98696185Y-119983186D01*
X98439550Y-119876622D01*
X98161669Y-119876379D01*
X97904849Y-119982496D01*
X97708186Y-120178815D01*
X97601622Y-120435450D01*
X97601379Y-120713331D01*
X96623738Y-120713331D01*
X96795151Y-120642504D01*
X96991814Y-120446185D01*
X97098378Y-120189550D01*
X97098621Y-119911669D01*
X96992504Y-119654849D01*
X96796185Y-119458186D01*
X96539550Y-119351622D01*
X96261669Y-119351379D01*
X96004849Y-119457496D01*
X95808186Y-119653815D01*
X95701622Y-119910450D01*
X95701379Y-120188331D01*
X84919664Y-120188331D01*
X84921814Y-120186185D01*
X85028378Y-119929550D01*
X85028621Y-119651669D01*
X84922504Y-119394849D01*
X84726185Y-119198186D01*
X84469550Y-119091622D01*
X84191669Y-119091379D01*
X83934849Y-119197496D01*
X83738186Y-119393815D01*
X83631622Y-119650450D01*
X83631379Y-119928331D01*
X77925717Y-119928331D01*
X77998983Y-119560000D01*
X77904243Y-119083712D01*
X77634448Y-118679935D01*
X77230671Y-118410140D01*
X76754383Y-118315400D01*
X76705617Y-118315400D01*
X76229329Y-118410140D01*
X75825552Y-118679935D01*
X75555757Y-119083712D01*
X75461017Y-119560000D01*
X75458983Y-119560000D01*
X75364243Y-119083712D01*
X75094448Y-118679935D01*
X74690671Y-118410140D01*
X74214383Y-118315400D01*
X74165617Y-118315400D01*
X73689329Y-118410140D01*
X73431000Y-118582750D01*
X73431000Y-117997250D01*
X73689329Y-118169860D01*
X74165617Y-118264600D01*
X74214383Y-118264600D01*
X74690671Y-118169860D01*
X75094448Y-117900065D01*
X75364243Y-117496288D01*
X75458983Y-117020000D01*
X75461017Y-117020000D01*
X75555757Y-117496288D01*
X75825552Y-117900065D01*
X76229329Y-118169860D01*
X76705617Y-118264600D01*
X76754383Y-118264600D01*
X77230671Y-118169860D01*
X77472416Y-118008331D01*
X80471379Y-118008331D01*
X80577496Y-118265151D01*
X80773815Y-118461814D01*
X80889828Y-118509987D01*
X80774849Y-118557496D01*
X80578186Y-118753815D01*
X80471622Y-119010450D01*
X80471379Y-119288331D01*
X80577496Y-119545151D01*
X80773815Y-119741814D01*
X81030450Y-119848378D01*
X81308331Y-119848621D01*
X81565151Y-119742504D01*
X81761814Y-119546185D01*
X81868378Y-119289550D01*
X81868621Y-119011669D01*
X81762504Y-118754849D01*
X81566185Y-118558186D01*
X81518370Y-118538331D01*
X96751379Y-118538331D01*
X96857496Y-118795151D01*
X97053815Y-118991814D01*
X97310450Y-119098378D01*
X97588331Y-119098621D01*
X97845151Y-118992504D01*
X98041814Y-118796185D01*
X98148378Y-118539550D01*
X98148523Y-118373455D01*
X98338331Y-118373621D01*
X98544746Y-118288331D01*
X105401379Y-118288331D01*
X105507496Y-118545151D01*
X105703815Y-118741814D01*
X105960450Y-118848378D01*
X106238331Y-118848621D01*
X106495151Y-118742504D01*
X106691814Y-118546185D01*
X106699736Y-118527107D01*
X106794996Y-118757651D01*
X106991315Y-118954314D01*
X107120999Y-119008164D01*
X107026622Y-119235450D01*
X107026379Y-119513331D01*
X107132496Y-119770151D01*
X107328815Y-119966814D01*
X107585450Y-120073378D01*
X107863331Y-120073621D01*
X108120151Y-119967504D01*
X108316814Y-119771185D01*
X108423378Y-119514550D01*
X108423495Y-119380000D01*
X114301017Y-119380000D01*
X114395757Y-119856288D01*
X114665552Y-120260065D01*
X115069329Y-120529860D01*
X115545617Y-120624600D01*
X115594383Y-120624600D01*
X116070671Y-120529860D01*
X116474448Y-120260065D01*
X116744243Y-119856288D01*
X116838983Y-119380000D01*
X116841017Y-119380000D01*
X116935757Y-119856288D01*
X117205552Y-120260065D01*
X117609329Y-120529860D01*
X118085617Y-120624600D01*
X118134383Y-120624600D01*
X118610671Y-120529860D01*
X119014448Y-120260065D01*
X119284243Y-119856288D01*
X119378983Y-119380000D01*
X119284243Y-118903712D01*
X119014448Y-118499935D01*
X118610671Y-118230140D01*
X118134383Y-118135400D01*
X118085617Y-118135400D01*
X117609329Y-118230140D01*
X117205552Y-118499935D01*
X116935757Y-118903712D01*
X116841017Y-119380000D01*
X116838983Y-119380000D01*
X116744243Y-118903712D01*
X116474448Y-118499935D01*
X116070671Y-118230140D01*
X115594383Y-118135400D01*
X115545617Y-118135400D01*
X115069329Y-118230140D01*
X114665552Y-118499935D01*
X114395757Y-118903712D01*
X114301017Y-119380000D01*
X108423495Y-119380000D01*
X108423621Y-119236669D01*
X108317504Y-118979849D01*
X108121185Y-118783186D01*
X107991501Y-118729336D01*
X108081193Y-118513331D01*
X108651379Y-118513331D01*
X108757496Y-118770151D01*
X108953815Y-118966814D01*
X109210450Y-119073378D01*
X109488331Y-119073621D01*
X109745151Y-118967504D01*
X109941814Y-118771185D01*
X110048378Y-118514550D01*
X110048621Y-118236669D01*
X109942504Y-117979849D01*
X109746185Y-117783186D01*
X109489550Y-117676622D01*
X109211669Y-117676379D01*
X108954849Y-117782496D01*
X108758186Y-117978815D01*
X108651622Y-118235450D01*
X108651379Y-118513331D01*
X108081193Y-118513331D01*
X108085878Y-118502050D01*
X108086121Y-118224169D01*
X107980004Y-117967349D01*
X107811460Y-117798510D01*
X107938331Y-117798621D01*
X108195151Y-117692504D01*
X108391814Y-117496185D01*
X108498378Y-117239550D01*
X108498621Y-116961669D01*
X108392504Y-116704849D01*
X108196185Y-116508186D01*
X107939550Y-116401622D01*
X107661669Y-116401379D01*
X107404849Y-116507496D01*
X107208186Y-116703815D01*
X107101622Y-116960450D01*
X107101379Y-117238331D01*
X107207496Y-117495151D01*
X107376040Y-117663990D01*
X107249169Y-117663879D01*
X106992349Y-117769996D01*
X106795686Y-117966315D01*
X106787764Y-117985393D01*
X106692504Y-117754849D01*
X106496185Y-117558186D01*
X106239550Y-117451622D01*
X105961669Y-117451379D01*
X105704849Y-117557496D01*
X105508186Y-117753815D01*
X105401622Y-118010450D01*
X105401379Y-118288331D01*
X98544746Y-118288331D01*
X98595151Y-118267504D01*
X98791814Y-118071185D01*
X98898378Y-117814550D01*
X98898621Y-117536669D01*
X98792504Y-117279849D01*
X98596185Y-117083186D01*
X98339550Y-116976622D01*
X98061669Y-116976379D01*
X97804849Y-117082496D01*
X97608186Y-117278815D01*
X97501622Y-117535450D01*
X97501477Y-117701545D01*
X97311669Y-117701379D01*
X97054849Y-117807496D01*
X96858186Y-118003815D01*
X96751622Y-118260450D01*
X96751379Y-118538331D01*
X81518370Y-118538331D01*
X81450172Y-118510013D01*
X81565151Y-118462504D01*
X81761814Y-118266185D01*
X81868378Y-118009550D01*
X81868621Y-117731669D01*
X81762504Y-117474849D01*
X81566185Y-117278186D01*
X81309550Y-117171622D01*
X81031669Y-117171379D01*
X80774849Y-117277496D01*
X80578186Y-117473815D01*
X80471622Y-117730450D01*
X80471379Y-118008331D01*
X77472416Y-118008331D01*
X77634448Y-117900065D01*
X77904243Y-117496288D01*
X77998983Y-117020000D01*
X77904243Y-116543712D01*
X77883944Y-116513331D01*
X105531379Y-116513331D01*
X105637496Y-116770151D01*
X105833815Y-116966814D01*
X106090450Y-117073378D01*
X106368331Y-117073621D01*
X106625151Y-116967504D01*
X106821814Y-116771185D01*
X106928378Y-116514550D01*
X106928621Y-116236669D01*
X106822504Y-115979849D01*
X106626185Y-115783186D01*
X106445914Y-115708331D01*
X107156379Y-115708331D01*
X107262496Y-115965151D01*
X107458815Y-116161814D01*
X107715450Y-116268378D01*
X107993331Y-116268621D01*
X108250151Y-116162504D01*
X108446814Y-115966185D01*
X108553378Y-115709550D01*
X108553621Y-115431669D01*
X108447504Y-115174849D01*
X108251185Y-114978186D01*
X107994550Y-114871622D01*
X107716669Y-114871379D01*
X107459849Y-114977496D01*
X107263186Y-115173815D01*
X107156622Y-115430450D01*
X107156379Y-115708331D01*
X106445914Y-115708331D01*
X106369550Y-115676622D01*
X106091669Y-115676379D01*
X105834849Y-115782496D01*
X105638186Y-115978815D01*
X105531622Y-116235450D01*
X105531379Y-116513331D01*
X77883944Y-116513331D01*
X77634448Y-116139935D01*
X77230671Y-115870140D01*
X76754383Y-115775400D01*
X76705617Y-115775400D01*
X76229329Y-115870140D01*
X75825552Y-116139935D01*
X75555757Y-116543712D01*
X75461017Y-117020000D01*
X75458983Y-117020000D01*
X75364243Y-116543712D01*
X75094448Y-116139935D01*
X74690671Y-115870140D01*
X74214383Y-115775400D01*
X74165617Y-115775400D01*
X73689329Y-115870140D01*
X73431000Y-116042750D01*
X73431000Y-115457250D01*
X73689329Y-115629860D01*
X74165617Y-115724600D01*
X74214383Y-115724600D01*
X74690671Y-115629860D01*
X75094448Y-115360065D01*
X75364243Y-114956288D01*
X75458983Y-114480000D01*
X75461017Y-114480000D01*
X75555757Y-114956288D01*
X75825552Y-115360065D01*
X76229329Y-115629860D01*
X76705617Y-115724600D01*
X76754383Y-115724600D01*
X77230671Y-115629860D01*
X77634448Y-115360065D01*
X77904243Y-114956288D01*
X77904565Y-114954669D01*
X87943864Y-114954669D01*
X88062514Y-115241823D01*
X88282021Y-115461714D01*
X88568968Y-115580864D01*
X88879669Y-115581136D01*
X89166823Y-115462486D01*
X89386714Y-115242979D01*
X89505864Y-114956032D01*
X89506136Y-114645331D01*
X89481518Y-114585750D01*
X114071400Y-114585750D01*
X114071400Y-115289910D01*
X114168073Y-115523299D01*
X114346702Y-115701927D01*
X114413819Y-115729728D01*
X114348541Y-115825266D01*
X114317936Y-115976400D01*
X114317936Y-117703600D01*
X114344503Y-117844790D01*
X114427946Y-117974465D01*
X114555266Y-118061459D01*
X114706400Y-118092064D01*
X116433600Y-118092064D01*
X116574790Y-118065497D01*
X116704465Y-117982054D01*
X116791459Y-117854734D01*
X116822064Y-117703600D01*
X116822064Y-115976400D01*
X116795497Y-115835210D01*
X116727318Y-115729257D01*
X116793298Y-115701927D01*
X116971927Y-115523299D01*
X117054529Y-115323881D01*
X117221510Y-115506821D01*
X117611662Y-115689676D01*
X117609329Y-115690140D01*
X117205552Y-115959935D01*
X116935757Y-116363712D01*
X116841017Y-116840000D01*
X116935757Y-117316288D01*
X117205552Y-117720065D01*
X117609329Y-117989860D01*
X118085617Y-118084600D01*
X118134383Y-118084600D01*
X118610671Y-117989860D01*
X119014448Y-117720065D01*
X119284243Y-117316288D01*
X119378983Y-116840000D01*
X119284243Y-116363712D01*
X119014448Y-115959935D01*
X118610671Y-115690140D01*
X118608338Y-115689676D01*
X118998490Y-115506821D01*
X119392688Y-115074947D01*
X119564958Y-114659026D01*
X119443817Y-114427000D01*
X118237000Y-114427000D01*
X118237000Y-114447000D01*
X117983000Y-114447000D01*
X117983000Y-114427000D01*
X115697000Y-114427000D01*
X115697000Y-114447000D01*
X115443000Y-114447000D01*
X115443000Y-114427000D01*
X114230150Y-114427000D01*
X114071400Y-114585750D01*
X89481518Y-114585750D01*
X89387486Y-114358177D01*
X89167979Y-114138286D01*
X88881032Y-114019136D01*
X88570331Y-114018864D01*
X88283177Y-114137514D01*
X88063286Y-114357021D01*
X87944136Y-114643968D01*
X87943864Y-114954669D01*
X77904565Y-114954669D01*
X77998983Y-114480000D01*
X77904243Y-114003712D01*
X77636049Y-113602331D01*
X83977379Y-113602331D01*
X84083496Y-113859151D01*
X84279815Y-114055814D01*
X84536450Y-114162378D01*
X84814331Y-114162621D01*
X85071151Y-114056504D01*
X85267814Y-113860185D01*
X85374378Y-113603550D01*
X85374621Y-113325669D01*
X85268504Y-113068849D01*
X85072185Y-112872186D01*
X85030000Y-112854669D01*
X87918864Y-112854669D01*
X88037514Y-113141823D01*
X88257021Y-113361714D01*
X88543968Y-113480864D01*
X88854669Y-113481136D01*
X89141823Y-113362486D01*
X89194310Y-113310090D01*
X114071400Y-113310090D01*
X114071400Y-114014250D01*
X114230150Y-114173000D01*
X115443000Y-114173000D01*
X115443000Y-112960150D01*
X115697000Y-112960150D01*
X115697000Y-114173000D01*
X117983000Y-114173000D01*
X117983000Y-112965531D01*
X118237000Y-112965531D01*
X118237000Y-114173000D01*
X119443817Y-114173000D01*
X119564958Y-113940974D01*
X119392688Y-113525053D01*
X119311769Y-113436400D01*
X121785536Y-113436400D01*
X121785536Y-115163600D01*
X121812103Y-115304790D01*
X121895546Y-115434465D01*
X122022866Y-115521459D01*
X122174000Y-115552064D01*
X124206000Y-115552064D01*
X124347190Y-115525497D01*
X124476865Y-115442054D01*
X124563859Y-115314734D01*
X124594464Y-115163600D01*
X124594464Y-114388331D01*
X126301379Y-114388331D01*
X126407496Y-114645151D01*
X126603815Y-114841814D01*
X126860450Y-114948378D01*
X127138331Y-114948621D01*
X127395151Y-114842504D01*
X127591814Y-114646185D01*
X127698378Y-114389550D01*
X127698444Y-114313331D01*
X129401379Y-114313331D01*
X129507496Y-114570151D01*
X129703815Y-114766814D01*
X129960450Y-114873378D01*
X130238331Y-114873621D01*
X130495151Y-114767504D01*
X130691814Y-114571185D01*
X130798378Y-114314550D01*
X130798621Y-114036669D01*
X130692504Y-113779849D01*
X130496185Y-113583186D01*
X130239550Y-113476622D01*
X129961669Y-113476379D01*
X129704849Y-113582496D01*
X129508186Y-113778815D01*
X129401622Y-114035450D01*
X129401379Y-114313331D01*
X127698444Y-114313331D01*
X127698621Y-114111669D01*
X127592504Y-113854849D01*
X127396185Y-113658186D01*
X127139550Y-113551622D01*
X126861669Y-113551379D01*
X126604849Y-113657496D01*
X126408186Y-113853815D01*
X126301622Y-114110450D01*
X126301379Y-114388331D01*
X124594464Y-114388331D01*
X124594464Y-113436400D01*
X124567897Y-113295210D01*
X124484454Y-113165535D01*
X124357134Y-113078541D01*
X124206000Y-113047936D01*
X122174000Y-113047936D01*
X122032810Y-113074503D01*
X121903135Y-113157946D01*
X121816141Y-113285266D01*
X121785536Y-113436400D01*
X119311769Y-113436400D01*
X118998490Y-113093179D01*
X118469027Y-112845032D01*
X118237000Y-112965531D01*
X117983000Y-112965531D01*
X117750973Y-112845032D01*
X117221510Y-113093179D01*
X117054529Y-113276119D01*
X116971927Y-113076701D01*
X116793298Y-112898073D01*
X116559909Y-112801400D01*
X115855750Y-112801400D01*
X115697000Y-112960150D01*
X115443000Y-112960150D01*
X115284250Y-112801400D01*
X114580091Y-112801400D01*
X114346702Y-112898073D01*
X114168073Y-113076701D01*
X114071400Y-113310090D01*
X89194310Y-113310090D01*
X89361714Y-113142979D01*
X89480864Y-112856032D01*
X89481136Y-112545331D01*
X89443676Y-112454669D01*
X90943864Y-112454669D01*
X91062514Y-112741823D01*
X91282021Y-112961714D01*
X91568968Y-113080864D01*
X91879669Y-113081136D01*
X92166823Y-112962486D01*
X92386714Y-112742979D01*
X92505864Y-112456032D01*
X92506136Y-112145331D01*
X92420606Y-111938331D01*
X108551379Y-111938331D01*
X108657496Y-112195151D01*
X108853815Y-112391814D01*
X109110450Y-112498378D01*
X109388331Y-112498621D01*
X109645151Y-112392504D01*
X109841814Y-112196185D01*
X109948378Y-111939550D01*
X109948535Y-111760000D01*
X121765631Y-111760000D01*
X121860371Y-112236288D01*
X122130166Y-112640065D01*
X122533943Y-112909860D01*
X123010231Y-113004600D01*
X123369769Y-113004600D01*
X123846057Y-112909860D01*
X124249834Y-112640065D01*
X124519629Y-112236288D01*
X124614369Y-111760000D01*
X124519629Y-111283712D01*
X124249834Y-110879935D01*
X123846057Y-110610140D01*
X123369769Y-110515400D01*
X123010231Y-110515400D01*
X122533943Y-110610140D01*
X122130166Y-110879935D01*
X121860371Y-111283712D01*
X121765631Y-111760000D01*
X109948535Y-111760000D01*
X109948621Y-111661669D01*
X109842504Y-111404849D01*
X109646185Y-111208186D01*
X109389550Y-111101622D01*
X109111669Y-111101379D01*
X108854849Y-111207496D01*
X108658186Y-111403815D01*
X108551622Y-111660450D01*
X108551379Y-111938331D01*
X92420606Y-111938331D01*
X92387486Y-111858177D01*
X92167979Y-111638286D01*
X91881032Y-111519136D01*
X91570331Y-111518864D01*
X91283177Y-111637514D01*
X91063286Y-111857021D01*
X90944136Y-112143968D01*
X90943864Y-112454669D01*
X89443676Y-112454669D01*
X89362486Y-112258177D01*
X89142979Y-112038286D01*
X88856032Y-111919136D01*
X88545331Y-111918864D01*
X88258177Y-112037514D01*
X88038286Y-112257021D01*
X87919136Y-112543968D01*
X87918864Y-112854669D01*
X85030000Y-112854669D01*
X84815550Y-112765622D01*
X84537669Y-112765379D01*
X84280849Y-112871496D01*
X84084186Y-113067815D01*
X83977622Y-113324450D01*
X83977379Y-113602331D01*
X77636049Y-113602331D01*
X77634448Y-113599935D01*
X77230671Y-113330140D01*
X76754383Y-113235400D01*
X76705617Y-113235400D01*
X76229329Y-113330140D01*
X75825552Y-113599935D01*
X75555757Y-114003712D01*
X75461017Y-114480000D01*
X75458983Y-114480000D01*
X75364243Y-114003712D01*
X75094448Y-113599935D01*
X74690671Y-113330140D01*
X74214383Y-113235400D01*
X74165617Y-113235400D01*
X73689329Y-113330140D01*
X73431000Y-113502750D01*
X73431000Y-112917250D01*
X73689329Y-113089860D01*
X74165617Y-113184600D01*
X74214383Y-113184600D01*
X74690671Y-113089860D01*
X75094448Y-112820065D01*
X75364243Y-112416288D01*
X75458983Y-111940000D01*
X75461017Y-111940000D01*
X75555757Y-112416288D01*
X75825552Y-112820065D01*
X76229329Y-113089860D01*
X76705617Y-113184600D01*
X76754383Y-113184600D01*
X77230671Y-113089860D01*
X77634448Y-112820065D01*
X77904243Y-112416288D01*
X77998983Y-111940000D01*
X77904243Y-111463712D01*
X77634448Y-111059935D01*
X77230671Y-110790140D01*
X76754383Y-110695400D01*
X76705617Y-110695400D01*
X76229329Y-110790140D01*
X75825552Y-111059935D01*
X75555757Y-111463712D01*
X75461017Y-111940000D01*
X75458983Y-111940000D01*
X75364243Y-111463712D01*
X75094448Y-111059935D01*
X74690671Y-110790140D01*
X74214383Y-110695400D01*
X74165617Y-110695400D01*
X73689329Y-110790140D01*
X73431000Y-110962750D01*
X73431000Y-110377250D01*
X73689329Y-110549860D01*
X74165617Y-110644600D01*
X74214383Y-110644600D01*
X74690671Y-110549860D01*
X75094448Y-110280065D01*
X75364243Y-109876288D01*
X75458983Y-109400000D01*
X75461017Y-109400000D01*
X75555757Y-109876288D01*
X75825552Y-110280065D01*
X76229329Y-110549860D01*
X76705617Y-110644600D01*
X76754383Y-110644600D01*
X77230671Y-110549860D01*
X77634448Y-110280065D01*
X77904243Y-109876288D01*
X77998983Y-109400000D01*
X77963179Y-109220000D01*
X121765631Y-109220000D01*
X121860371Y-109696288D01*
X122130166Y-110100065D01*
X122533943Y-110369860D01*
X123010231Y-110464600D01*
X123369769Y-110464600D01*
X123846057Y-110369860D01*
X124249834Y-110100065D01*
X124519629Y-109696288D01*
X124614369Y-109220000D01*
X124519629Y-108743712D01*
X124249834Y-108339935D01*
X123846057Y-108070140D01*
X123369769Y-107975400D01*
X123010231Y-107975400D01*
X122533943Y-108070140D01*
X122130166Y-108339935D01*
X121860371Y-108743712D01*
X121765631Y-109220000D01*
X77963179Y-109220000D01*
X77904243Y-108923712D01*
X77634448Y-108519935D01*
X77512319Y-108438331D01*
X96201379Y-108438331D01*
X96307496Y-108695151D01*
X96503815Y-108891814D01*
X96760450Y-108998378D01*
X97038331Y-108998621D01*
X97295151Y-108892504D01*
X97491814Y-108696185D01*
X97598378Y-108439550D01*
X97598621Y-108161669D01*
X97547659Y-108038331D01*
X106451379Y-108038331D01*
X106557496Y-108295151D01*
X106753815Y-108491814D01*
X107010450Y-108598378D01*
X107288331Y-108598621D01*
X107545151Y-108492504D01*
X107741814Y-108296185D01*
X107760438Y-108251331D01*
X110914379Y-108251331D01*
X111020496Y-108508151D01*
X111216815Y-108704814D01*
X111473450Y-108811378D01*
X111751331Y-108811621D01*
X112008151Y-108705504D01*
X112204814Y-108509185D01*
X112311378Y-108252550D01*
X112311621Y-107974669D01*
X112205504Y-107717849D01*
X112009185Y-107521186D01*
X111752550Y-107414622D01*
X111474669Y-107414379D01*
X111217849Y-107520496D01*
X111021186Y-107716815D01*
X110914622Y-107973450D01*
X110914379Y-108251331D01*
X107760438Y-108251331D01*
X107848378Y-108039550D01*
X107848621Y-107761669D01*
X107742504Y-107504849D01*
X107546185Y-107308186D01*
X107289550Y-107201622D01*
X107011669Y-107201379D01*
X106754849Y-107307496D01*
X106558186Y-107503815D01*
X106451622Y-107760450D01*
X106451379Y-108038331D01*
X97547659Y-108038331D01*
X97492504Y-107904849D01*
X97296185Y-107708186D01*
X97039550Y-107601622D01*
X96761669Y-107601379D01*
X96504849Y-107707496D01*
X96308186Y-107903815D01*
X96201622Y-108160450D01*
X96201379Y-108438331D01*
X77512319Y-108438331D01*
X77230671Y-108250140D01*
X76754383Y-108155400D01*
X76705617Y-108155400D01*
X76229329Y-108250140D01*
X75825552Y-108519935D01*
X75555757Y-108923712D01*
X75461017Y-109400000D01*
X75458983Y-109400000D01*
X75364243Y-108923712D01*
X75094448Y-108519935D01*
X74690671Y-108250140D01*
X74214383Y-108155400D01*
X74165617Y-108155400D01*
X73689329Y-108250140D01*
X73431000Y-108422750D01*
X73431000Y-107837250D01*
X73689329Y-108009860D01*
X74165617Y-108104600D01*
X74214383Y-108104600D01*
X74690671Y-108009860D01*
X75094448Y-107740065D01*
X75364243Y-107336288D01*
X75458983Y-106860000D01*
X75364243Y-106383712D01*
X75094448Y-105979935D01*
X74690671Y-105710140D01*
X74688338Y-105709676D01*
X75078490Y-105526821D01*
X75245471Y-105343881D01*
X75328073Y-105543299D01*
X75506702Y-105721927D01*
X75740091Y-105818600D01*
X76067007Y-105818600D01*
X75825552Y-105979935D01*
X75555757Y-106383712D01*
X75461017Y-106860000D01*
X75555757Y-107336288D01*
X75825552Y-107740065D01*
X76229329Y-108009860D01*
X76705617Y-108104600D01*
X76754383Y-108104600D01*
X77230671Y-108009860D01*
X77634448Y-107740065D01*
X77904243Y-107336288D01*
X77998983Y-106860000D01*
X77959863Y-106663331D01*
X86701379Y-106663331D01*
X86807496Y-106920151D01*
X87003815Y-107116814D01*
X87260450Y-107223378D01*
X87538331Y-107223621D01*
X87795151Y-107117504D01*
X87991814Y-106921185D01*
X88098378Y-106664550D01*
X88098621Y-106386669D01*
X87992504Y-106129849D01*
X87851234Y-105988331D01*
X92751379Y-105988331D01*
X92857496Y-106245151D01*
X93053815Y-106441814D01*
X93310450Y-106548378D01*
X93588331Y-106548621D01*
X93845151Y-106442504D01*
X94041814Y-106246185D01*
X94148378Y-105989550D01*
X94148539Y-105804669D01*
X111502864Y-105804669D01*
X111621514Y-106091823D01*
X111841021Y-106311714D01*
X112127968Y-106430864D01*
X112438669Y-106431136D01*
X112725823Y-106312486D01*
X112945714Y-106092979D01*
X113064864Y-105806032D01*
X113065136Y-105495331D01*
X112946486Y-105208177D01*
X112726979Y-104988286D01*
X112440032Y-104869136D01*
X112129331Y-104868864D01*
X111842177Y-104987514D01*
X111622286Y-105207021D01*
X111503136Y-105493968D01*
X111502864Y-105804669D01*
X94148539Y-105804669D01*
X94148621Y-105711669D01*
X94042504Y-105454849D01*
X93846185Y-105258186D01*
X93589550Y-105151622D01*
X93311669Y-105151379D01*
X93054849Y-105257496D01*
X92858186Y-105453815D01*
X92751622Y-105710450D01*
X92751379Y-105988331D01*
X87851234Y-105988331D01*
X87796185Y-105933186D01*
X87539550Y-105826622D01*
X87261669Y-105826379D01*
X87004849Y-105932496D01*
X86808186Y-106128815D01*
X86701622Y-106385450D01*
X86701379Y-106663331D01*
X77959863Y-106663331D01*
X77904243Y-106383712D01*
X77634448Y-105979935D01*
X77553476Y-105925831D01*
X83888879Y-105925831D01*
X83994996Y-106182651D01*
X84191315Y-106379314D01*
X84447950Y-106485878D01*
X84725831Y-106486121D01*
X84982651Y-106380004D01*
X85179314Y-106183685D01*
X85285878Y-105927050D01*
X85286121Y-105649169D01*
X85180004Y-105392349D01*
X84983685Y-105195686D01*
X84727050Y-105089122D01*
X84449169Y-105088879D01*
X84192349Y-105194996D01*
X83995686Y-105391315D01*
X83889122Y-105647950D01*
X83888879Y-105925831D01*
X77553476Y-105925831D01*
X77392993Y-105818600D01*
X77719909Y-105818600D01*
X77953298Y-105721927D01*
X78131927Y-105543299D01*
X78228600Y-105309910D01*
X78228600Y-104605750D01*
X78069850Y-104447000D01*
X76857000Y-104447000D01*
X76857000Y-104467000D01*
X76603000Y-104467000D01*
X76603000Y-104447000D01*
X74317000Y-104447000D01*
X74317000Y-104467000D01*
X74063000Y-104467000D01*
X74063000Y-104447000D01*
X74043000Y-104447000D01*
X74043000Y-104193000D01*
X74063000Y-104193000D01*
X74063000Y-102985531D01*
X74317000Y-102985531D01*
X74317000Y-104193000D01*
X76603000Y-104193000D01*
X76603000Y-102980150D01*
X76857000Y-102980150D01*
X76857000Y-104193000D01*
X78069850Y-104193000D01*
X78228600Y-104034250D01*
X78228600Y-103988331D01*
X83131379Y-103988331D01*
X83237496Y-104245151D01*
X83433815Y-104441814D01*
X83690450Y-104548378D01*
X83968331Y-104548621D01*
X84088358Y-104499026D01*
X121582642Y-104499026D01*
X121585291Y-104514791D01*
X121839268Y-105042036D01*
X122275680Y-105431954D01*
X122548243Y-105527296D01*
X122533943Y-105530140D01*
X122130166Y-105799935D01*
X121860371Y-106203712D01*
X121765631Y-106680000D01*
X121860371Y-107156288D01*
X122130166Y-107560065D01*
X122533943Y-107829860D01*
X123010231Y-107924600D01*
X123369769Y-107924600D01*
X123846057Y-107829860D01*
X124249834Y-107560065D01*
X124519629Y-107156288D01*
X124614369Y-106680000D01*
X124519629Y-106203712D01*
X124249834Y-105799935D01*
X123846057Y-105530140D01*
X123831757Y-105527296D01*
X124104320Y-105431954D01*
X124540732Y-105042036D01*
X124794709Y-104514791D01*
X124797358Y-104499026D01*
X124676217Y-104267000D01*
X123317000Y-104267000D01*
X123317000Y-104287000D01*
X123063000Y-104287000D01*
X123063000Y-104267000D01*
X121703783Y-104267000D01*
X121582642Y-104499026D01*
X84088358Y-104499026D01*
X84225151Y-104442504D01*
X84421814Y-104246185D01*
X84528378Y-103989550D01*
X84528580Y-103758331D01*
X85801379Y-103758331D01*
X85907496Y-104015151D01*
X86103815Y-104211814D01*
X86360450Y-104318378D01*
X86638331Y-104318621D01*
X86895151Y-104212504D01*
X87091814Y-104016185D01*
X87189481Y-103780974D01*
X121582642Y-103780974D01*
X121703783Y-104013000D01*
X123063000Y-104013000D01*
X123063000Y-102799076D01*
X123317000Y-102799076D01*
X123317000Y-104013000D01*
X124676217Y-104013000D01*
X124797358Y-103780974D01*
X124794709Y-103765209D01*
X124540732Y-103237964D01*
X124429219Y-103138331D01*
X131601379Y-103138331D01*
X131707496Y-103395151D01*
X131903815Y-103591814D01*
X132160450Y-103698378D01*
X132438331Y-103698621D01*
X132695151Y-103592504D01*
X132891814Y-103396185D01*
X132998378Y-103139550D01*
X132998621Y-102861669D01*
X132892504Y-102604849D01*
X132696185Y-102408186D01*
X132439550Y-102301622D01*
X132161669Y-102301379D01*
X131904849Y-102407496D01*
X131708186Y-102603815D01*
X131601622Y-102860450D01*
X131601379Y-103138331D01*
X124429219Y-103138331D01*
X124104320Y-102848046D01*
X123551913Y-102654816D01*
X123317000Y-102799076D01*
X123063000Y-102799076D01*
X122828087Y-102654816D01*
X122275680Y-102848046D01*
X121839268Y-103237964D01*
X121585291Y-103765209D01*
X121582642Y-103780974D01*
X87189481Y-103780974D01*
X87198378Y-103759550D01*
X87198621Y-103481669D01*
X87092504Y-103224849D01*
X86896185Y-103028186D01*
X86639550Y-102921622D01*
X86361669Y-102921379D01*
X86104849Y-103027496D01*
X85908186Y-103223815D01*
X85801622Y-103480450D01*
X85801379Y-103758331D01*
X84528580Y-103758331D01*
X84528621Y-103711669D01*
X84422504Y-103454849D01*
X84226185Y-103258186D01*
X83969550Y-103151622D01*
X83691669Y-103151379D01*
X83434849Y-103257496D01*
X83238186Y-103453815D01*
X83131622Y-103710450D01*
X83131379Y-103988331D01*
X78228600Y-103988331D01*
X78228600Y-103330090D01*
X78131927Y-103096701D01*
X77953298Y-102918073D01*
X77719909Y-102821400D01*
X77015750Y-102821400D01*
X76857000Y-102980150D01*
X76603000Y-102980150D01*
X76444250Y-102821400D01*
X75740091Y-102821400D01*
X75506702Y-102918073D01*
X75328073Y-103096701D01*
X75245471Y-103296119D01*
X75078490Y-103113179D01*
X74549027Y-102865032D01*
X74317000Y-102985531D01*
X74063000Y-102985531D01*
X73830973Y-102865032D01*
X73431000Y-103052490D01*
X73431000Y-101600000D01*
X114301017Y-101600000D01*
X114395757Y-102076288D01*
X114665552Y-102480065D01*
X115069329Y-102749860D01*
X115545617Y-102844600D01*
X115594383Y-102844600D01*
X116070671Y-102749860D01*
X116474448Y-102480065D01*
X116744243Y-102076288D01*
X116838983Y-101600000D01*
X116841017Y-101600000D01*
X116935757Y-102076288D01*
X117205552Y-102480065D01*
X117609329Y-102749860D01*
X118085617Y-102844600D01*
X118134383Y-102844600D01*
X118610671Y-102749860D01*
X119014448Y-102480065D01*
X119284243Y-102076288D01*
X119378983Y-101600000D01*
X119284243Y-101123712D01*
X119014448Y-100719935D01*
X118610671Y-100450140D01*
X118134383Y-100355400D01*
X118085617Y-100355400D01*
X117609329Y-100450140D01*
X117205552Y-100719935D01*
X116935757Y-101123712D01*
X116841017Y-101600000D01*
X116838983Y-101600000D01*
X116744243Y-101123712D01*
X116474448Y-100719935D01*
X116070671Y-100450140D01*
X115594383Y-100355400D01*
X115545617Y-100355400D01*
X115069329Y-100450140D01*
X114665552Y-100719935D01*
X114395757Y-101123712D01*
X114301017Y-101600000D01*
X73431000Y-101600000D01*
X73431000Y-100428331D01*
X85661379Y-100428331D01*
X85767496Y-100685151D01*
X85963815Y-100881814D01*
X86220450Y-100988378D01*
X86498331Y-100988621D01*
X86755151Y-100882504D01*
X86951814Y-100686185D01*
X86955075Y-100678331D01*
X95426379Y-100678331D01*
X95426388Y-100678352D01*
X95426379Y-100688331D01*
X95532496Y-100945151D01*
X95728815Y-101141814D01*
X95985450Y-101248378D01*
X96263331Y-101248621D01*
X96520151Y-101142504D01*
X96716814Y-100946185D01*
X96823378Y-100689550D01*
X96823621Y-100411669D01*
X96823612Y-100411648D01*
X96823621Y-100401669D01*
X96717504Y-100144849D01*
X96521185Y-99948186D01*
X96264550Y-99841622D01*
X95986669Y-99841379D01*
X95729849Y-99947496D01*
X95533186Y-100143815D01*
X95426622Y-100400450D01*
X95426379Y-100678331D01*
X86955075Y-100678331D01*
X87058378Y-100429550D01*
X87058621Y-100151669D01*
X86952504Y-99894849D01*
X86756185Y-99698186D01*
X86499550Y-99591622D01*
X86221669Y-99591379D01*
X85964849Y-99697496D01*
X85768186Y-99893815D01*
X85661622Y-100150450D01*
X85661379Y-100428331D01*
X73431000Y-100428331D01*
X73431000Y-98980331D01*
X85341379Y-98980331D01*
X85447496Y-99237151D01*
X85643815Y-99433814D01*
X85900450Y-99540378D01*
X86178331Y-99540621D01*
X86435151Y-99434504D01*
X86631814Y-99238185D01*
X86738378Y-98981550D01*
X86738621Y-98703669D01*
X86632504Y-98446849D01*
X86436185Y-98250186D01*
X86306654Y-98196400D01*
X114317936Y-98196400D01*
X114317936Y-99923600D01*
X114344503Y-100064790D01*
X114427946Y-100194465D01*
X114555266Y-100281459D01*
X114706400Y-100312064D01*
X116433600Y-100312064D01*
X116574790Y-100285497D01*
X116704465Y-100202054D01*
X116791459Y-100074734D01*
X116822064Y-99923600D01*
X116822064Y-99060000D01*
X116841017Y-99060000D01*
X116935757Y-99536288D01*
X117205552Y-99940065D01*
X117609329Y-100209860D01*
X118085617Y-100304600D01*
X118134383Y-100304600D01*
X118610671Y-100209860D01*
X119014448Y-99940065D01*
X119284243Y-99536288D01*
X119378983Y-99060000D01*
X119284243Y-98583712D01*
X119014448Y-98179935D01*
X118610671Y-97910140D01*
X118134383Y-97815400D01*
X118085617Y-97815400D01*
X117609329Y-97910140D01*
X117205552Y-98179935D01*
X116935757Y-98583712D01*
X116841017Y-99060000D01*
X116822064Y-99060000D01*
X116822064Y-98196400D01*
X116795497Y-98055210D01*
X116712054Y-97925535D01*
X116584734Y-97838541D01*
X116433600Y-97807936D01*
X114706400Y-97807936D01*
X114565210Y-97834503D01*
X114435535Y-97917946D01*
X114348541Y-98045266D01*
X114317936Y-98196400D01*
X86306654Y-98196400D01*
X86179550Y-98143622D01*
X85901669Y-98143379D01*
X85644849Y-98249496D01*
X85448186Y-98445815D01*
X85341622Y-98702450D01*
X85341379Y-98980331D01*
X73431000Y-98980331D01*
X73431000Y-92431000D01*
X135569000Y-92431000D01*
X135569000Y-141569000D01*
X135569000Y-141569000D01*
G37*
X135569000Y-141569000D02*
X132368959Y-141569000D01*
X132391814Y-141546185D01*
X132498378Y-141289550D01*
X132498621Y-141011669D01*
X132392504Y-140754849D01*
X132196185Y-140558186D01*
X131939550Y-140451622D01*
X131661669Y-140451379D01*
X131404849Y-140557496D01*
X131208186Y-140753815D01*
X131101622Y-141010450D01*
X131101379Y-141288331D01*
X131207496Y-141545151D01*
X131231303Y-141569000D01*
X73431000Y-141569000D01*
X73431000Y-139735473D01*
X73557021Y-139861714D01*
X73843968Y-139980864D01*
X74154669Y-139981136D01*
X74441823Y-139862486D01*
X74661714Y-139642979D01*
X74725929Y-139488331D01*
X78201379Y-139488331D01*
X78307496Y-139745151D01*
X78503815Y-139941814D01*
X78760450Y-140048378D01*
X79038331Y-140048621D01*
X79295151Y-139942504D01*
X79491814Y-139746185D01*
X79505456Y-139713331D01*
X88726379Y-139713331D01*
X88832496Y-139970151D01*
X89028815Y-140166814D01*
X89285450Y-140273378D01*
X89563331Y-140273621D01*
X89745544Y-140198331D01*
X116311379Y-140198331D01*
X116417496Y-140455151D01*
X116613815Y-140651814D01*
X116870450Y-140758378D01*
X117148331Y-140758621D01*
X117405151Y-140652504D01*
X117601814Y-140456185D01*
X117708378Y-140199550D01*
X117708621Y-139921669D01*
X117602504Y-139664849D01*
X117406185Y-139468186D01*
X117149550Y-139361622D01*
X116871669Y-139361379D01*
X116614849Y-139467496D01*
X116418186Y-139663815D01*
X116311622Y-139920450D01*
X116311379Y-140198331D01*
X89745544Y-140198331D01*
X89820151Y-140167504D01*
X90016814Y-139971185D01*
X90123378Y-139714550D01*
X90123621Y-139436669D01*
X90017504Y-139179849D01*
X89821185Y-138983186D01*
X89564550Y-138876622D01*
X89286669Y-138876379D01*
X89029849Y-138982496D01*
X88833186Y-139178815D01*
X88726622Y-139435450D01*
X88726379Y-139713331D01*
X79505456Y-139713331D01*
X79598378Y-139489550D01*
X79598621Y-139211669D01*
X79492504Y-138954849D01*
X79296185Y-138758186D01*
X79039550Y-138651622D01*
X78761669Y-138651379D01*
X78504849Y-138757496D01*
X78308186Y-138953815D01*
X78201622Y-139210450D01*
X78201379Y-139488331D01*
X74725929Y-139488331D01*
X74780864Y-139356032D01*
X74781136Y-139045331D01*
X74662486Y-138758177D01*
X74442979Y-138538286D01*
X74156032Y-138419136D01*
X73845331Y-138418864D01*
X73558177Y-138537514D01*
X73431000Y-138664469D01*
X73431000Y-136705331D01*
X79218379Y-136705331D01*
X79324496Y-136962151D01*
X79520815Y-137158814D01*
X79777450Y-137265378D01*
X80055331Y-137265621D01*
X80312151Y-137159504D01*
X80471602Y-137000331D01*
X85103379Y-137000331D01*
X85209496Y-137257151D01*
X85405815Y-137453814D01*
X85662450Y-137560378D01*
X85940331Y-137560621D01*
X86197151Y-137454504D01*
X86393814Y-137258185D01*
X86500378Y-137001550D01*
X86500621Y-136723669D01*
X86408339Y-136500331D01*
X87426379Y-136500331D01*
X87532496Y-136757151D01*
X87728815Y-136953814D01*
X87985450Y-137060378D01*
X88263331Y-137060621D01*
X88520151Y-136954504D01*
X88716814Y-136758185D01*
X88823378Y-136501550D01*
X88823621Y-136223669D01*
X88717504Y-135966849D01*
X88521185Y-135770186D01*
X88264550Y-135663622D01*
X87986669Y-135663379D01*
X87729849Y-135769496D01*
X87533186Y-135965815D01*
X87426622Y-136222450D01*
X87426379Y-136500331D01*
X86408339Y-136500331D01*
X86394504Y-136466849D01*
X86198185Y-136270186D01*
X85941550Y-136163622D01*
X85663669Y-136163379D01*
X85406849Y-136269496D01*
X85210186Y-136465815D01*
X85103622Y-136722450D01*
X85103379Y-137000331D01*
X80471602Y-137000331D01*
X80508814Y-136963185D01*
X80615378Y-136706550D01*
X80615621Y-136428669D01*
X80509504Y-136171849D01*
X80313185Y-135975186D01*
X80056550Y-135868622D01*
X79778669Y-135868379D01*
X79521849Y-135974496D01*
X79325186Y-136170815D01*
X79218622Y-136427450D01*
X79218379Y-136705331D01*
X73431000Y-136705331D01*
X73431000Y-133237250D01*
X73689329Y-133409860D01*
X74165617Y-133504600D01*
X74214383Y-133504600D01*
X74690671Y-133409860D01*
X75094448Y-133140065D01*
X75339159Y-132773828D01*
X75447312Y-133034947D01*
X75841510Y-133466821D01*
X76370973Y-133714968D01*
X76603000Y-133594469D01*
X76603000Y-132387000D01*
X76857000Y-132387000D01*
X76857000Y-133594469D01*
X77089027Y-133714968D01*
X77371681Y-133582495D01*
X77437514Y-133741823D01*
X77657021Y-133961714D01*
X77943968Y-134080864D01*
X78251560Y-134081133D01*
X78251379Y-134288331D01*
X78357496Y-134545151D01*
X78553815Y-134741814D01*
X78810450Y-134848378D01*
X79088331Y-134848621D01*
X79345151Y-134742504D01*
X79541814Y-134546185D01*
X79648378Y-134289550D01*
X79648621Y-134011669D01*
X79643937Y-134000331D01*
X87514379Y-134000331D01*
X87620496Y-134257151D01*
X87816815Y-134453814D01*
X88073450Y-134560378D01*
X88351331Y-134560621D01*
X88608151Y-134454504D01*
X88804814Y-134258185D01*
X88896105Y-134038331D01*
X119601379Y-134038331D01*
X119707496Y-134295151D01*
X119903815Y-134491814D01*
X120160450Y-134598378D01*
X120438331Y-134598621D01*
X120695151Y-134492504D01*
X120891814Y-134296185D01*
X120998378Y-134039550D01*
X120998621Y-133761669D01*
X120892504Y-133504849D01*
X120696185Y-133308186D01*
X120439550Y-133201622D01*
X120161669Y-133201379D01*
X119904849Y-133307496D01*
X119708186Y-133503815D01*
X119601622Y-133760450D01*
X119601379Y-134038331D01*
X88896105Y-134038331D01*
X88911378Y-134001550D01*
X88911621Y-133723669D01*
X88805504Y-133466849D01*
X88720136Y-133381331D01*
X96394379Y-133381331D01*
X96500496Y-133638151D01*
X96696815Y-133834814D01*
X96953450Y-133941378D01*
X97231331Y-133941621D01*
X97488151Y-133835504D01*
X97684814Y-133639185D01*
X97791378Y-133382550D01*
X97791621Y-133104669D01*
X97685504Y-132847849D01*
X97489185Y-132651186D01*
X97232550Y-132544622D01*
X96954669Y-132544379D01*
X96697849Y-132650496D01*
X96501186Y-132846815D01*
X96394622Y-133103450D01*
X96394379Y-133381331D01*
X88720136Y-133381331D01*
X88609185Y-133270186D01*
X88352550Y-133163622D01*
X88074669Y-133163379D01*
X87817849Y-133269496D01*
X87621186Y-133465815D01*
X87514622Y-133722450D01*
X87514379Y-134000331D01*
X79643937Y-134000331D01*
X79542504Y-133754849D01*
X79346185Y-133558186D01*
X79089550Y-133451622D01*
X78880868Y-133451440D01*
X78881136Y-133145331D01*
X78762486Y-132858177D01*
X78542979Y-132638286D01*
X78256032Y-132519136D01*
X78132749Y-132519028D01*
X78063817Y-132387000D01*
X76857000Y-132387000D01*
X76603000Y-132387000D01*
X76583000Y-132387000D01*
X76583000Y-132133000D01*
X76603000Y-132133000D01*
X76603000Y-132113000D01*
X76857000Y-132113000D01*
X76857000Y-132133000D01*
X78063817Y-132133000D01*
X78091488Y-132080000D01*
X114301017Y-132080000D01*
X114395757Y-132556288D01*
X114665552Y-132960065D01*
X115069329Y-133229860D01*
X115545617Y-133324600D01*
X115594383Y-133324600D01*
X116070671Y-133229860D01*
X116474448Y-132960065D01*
X116744243Y-132556288D01*
X116838983Y-132080000D01*
X116744243Y-131603712D01*
X116474448Y-131199935D01*
X116070671Y-130930140D01*
X115594383Y-130835400D01*
X115545617Y-130835400D01*
X115069329Y-130930140D01*
X114665552Y-131199935D01*
X114395757Y-131603712D01*
X114301017Y-132080000D01*
X78091488Y-132080000D01*
X78184958Y-131900974D01*
X78012688Y-131485053D01*
X77743678Y-131190331D01*
X82399379Y-131190331D01*
X82505496Y-131447151D01*
X82701815Y-131643814D01*
X82958450Y-131750378D01*
X83236331Y-131750621D01*
X83493151Y-131644504D01*
X83689814Y-131448185D01*
X83787333Y-131213331D01*
X87876379Y-131213331D01*
X87982496Y-131470151D01*
X88178815Y-131666814D01*
X88435450Y-131773378D01*
X88713331Y-131773621D01*
X88970151Y-131667504D01*
X89166814Y-131471185D01*
X89273378Y-131214550D01*
X89273621Y-130936669D01*
X89167504Y-130679849D01*
X88971185Y-130483186D01*
X88714550Y-130376622D01*
X88436669Y-130376379D01*
X88179849Y-130482496D01*
X87983186Y-130678815D01*
X87876622Y-130935450D01*
X87876379Y-131213331D01*
X83787333Y-131213331D01*
X83796378Y-131191550D01*
X83796621Y-130913669D01*
X83690504Y-130656849D01*
X83494185Y-130460186D01*
X83237550Y-130353622D01*
X82959669Y-130353379D01*
X82702849Y-130459496D01*
X82506186Y-130655815D01*
X82399622Y-130912450D01*
X82399379Y-131190331D01*
X77743678Y-131190331D01*
X77618490Y-131053179D01*
X77228338Y-130870324D01*
X77230671Y-130869860D01*
X77634448Y-130600065D01*
X77904243Y-130196288D01*
X77998983Y-129720000D01*
X77963179Y-129540000D01*
X114301017Y-129540000D01*
X114395757Y-130016288D01*
X114665552Y-130420065D01*
X115069329Y-130689860D01*
X115545617Y-130784600D01*
X115594383Y-130784600D01*
X116070671Y-130689860D01*
X116474448Y-130420065D01*
X116719159Y-130053828D01*
X116827312Y-130314947D01*
X117221510Y-130746821D01*
X117611662Y-130929676D01*
X117609329Y-130930140D01*
X117205552Y-131199935D01*
X116935757Y-131603712D01*
X116841017Y-132080000D01*
X116935757Y-132556288D01*
X117205552Y-132960065D01*
X117609329Y-133229860D01*
X118085617Y-133324600D01*
X118134383Y-133324600D01*
X118610671Y-133229860D01*
X119014448Y-132960065D01*
X119284243Y-132556288D01*
X119325608Y-132348331D01*
X131531379Y-132348331D01*
X131637496Y-132605151D01*
X131833815Y-132801814D01*
X132090450Y-132908378D01*
X132368331Y-132908621D01*
X132625151Y-132802504D01*
X132821814Y-132606185D01*
X132928378Y-132349550D01*
X132928414Y-132308331D01*
X133081379Y-132308331D01*
X133187496Y-132565151D01*
X133383815Y-132761814D01*
X133640450Y-132868378D01*
X133918331Y-132868621D01*
X134175151Y-132762504D01*
X134371814Y-132566185D01*
X134478378Y-132309550D01*
X134478621Y-132031669D01*
X134372504Y-131774849D01*
X134176185Y-131578186D01*
X133919550Y-131471622D01*
X133641669Y-131471379D01*
X133384849Y-131577496D01*
X133188186Y-131773815D01*
X133081622Y-132030450D01*
X133081379Y-132308331D01*
X132928414Y-132308331D01*
X132928621Y-132071669D01*
X132822504Y-131814849D01*
X132626185Y-131618186D01*
X132369550Y-131511622D01*
X132091669Y-131511379D01*
X131834849Y-131617496D01*
X131638186Y-131813815D01*
X131531622Y-132070450D01*
X131531379Y-132348331D01*
X119325608Y-132348331D01*
X119378983Y-132080000D01*
X119284243Y-131603712D01*
X119014448Y-131199935D01*
X118610671Y-130930140D01*
X118608338Y-130929676D01*
X118683031Y-130894669D01*
X123688864Y-130894669D01*
X123807514Y-131181823D01*
X124027021Y-131401714D01*
X124313968Y-131520864D01*
X124624669Y-131521136D01*
X124911823Y-131402486D01*
X125131714Y-131182979D01*
X125250864Y-130896032D01*
X125251136Y-130585331D01*
X125132486Y-130298177D01*
X124912979Y-130078286D01*
X124626032Y-129959136D01*
X124315331Y-129958864D01*
X124028177Y-130077514D01*
X123808286Y-130297021D01*
X123689136Y-130583968D01*
X123688864Y-130894669D01*
X118683031Y-130894669D01*
X118998490Y-130746821D01*
X119392688Y-130314947D01*
X119564958Y-129899026D01*
X119443817Y-129667000D01*
X118237000Y-129667000D01*
X118237000Y-129687000D01*
X117983000Y-129687000D01*
X117983000Y-129667000D01*
X117963000Y-129667000D01*
X117963000Y-129413000D01*
X117983000Y-129413000D01*
X117983000Y-129393000D01*
X118237000Y-129393000D01*
X118237000Y-129413000D01*
X119443817Y-129413000D01*
X119564958Y-129180974D01*
X119392688Y-128765053D01*
X118998490Y-128333179D01*
X118608338Y-128150324D01*
X118610671Y-128149860D01*
X119014448Y-127880065D01*
X119284243Y-127476288D01*
X119378983Y-127000000D01*
X119284243Y-126523712D01*
X119014448Y-126119935D01*
X118610671Y-125850140D01*
X118134383Y-125755400D01*
X118085617Y-125755400D01*
X117609329Y-125850140D01*
X117205552Y-126119935D01*
X116935757Y-126523712D01*
X116841017Y-127000000D01*
X116935757Y-127476288D01*
X117205552Y-127880065D01*
X117609329Y-128149860D01*
X117611662Y-128150324D01*
X117221510Y-128333179D01*
X116827312Y-128765053D01*
X116719159Y-129026172D01*
X116474448Y-128659935D01*
X116070671Y-128390140D01*
X115594383Y-128295400D01*
X115545617Y-128295400D01*
X115069329Y-128390140D01*
X114665552Y-128659935D01*
X114395757Y-129063712D01*
X114301017Y-129540000D01*
X77963179Y-129540000D01*
X77904243Y-129243712D01*
X77634448Y-128839935D01*
X77230671Y-128570140D01*
X76754383Y-128475400D01*
X76705617Y-128475400D01*
X76229329Y-128570140D01*
X75825552Y-128839935D01*
X75555757Y-129243712D01*
X75461017Y-129720000D01*
X75555757Y-130196288D01*
X75825552Y-130600065D01*
X76229329Y-130869860D01*
X76231662Y-130870324D01*
X75841510Y-131053179D01*
X75447312Y-131485053D01*
X75339159Y-131746172D01*
X75094448Y-131379935D01*
X74690671Y-131110140D01*
X74214383Y-131015400D01*
X74165617Y-131015400D01*
X73689329Y-131110140D01*
X73431000Y-131282750D01*
X73431000Y-130697250D01*
X73689329Y-130869860D01*
X74165617Y-130964600D01*
X74214383Y-130964600D01*
X74690671Y-130869860D01*
X75094448Y-130600065D01*
X75364243Y-130196288D01*
X75458983Y-129720000D01*
X75364243Y-129243712D01*
X75094448Y-128839935D01*
X74690671Y-128570140D01*
X74688338Y-128569676D01*
X75078490Y-128386821D01*
X75472688Y-127954947D01*
X75580841Y-127693828D01*
X75825552Y-128060065D01*
X76229329Y-128329860D01*
X76705617Y-128424600D01*
X76754383Y-128424600D01*
X77230671Y-128329860D01*
X77634448Y-128060065D01*
X77904243Y-127656288D01*
X77998983Y-127180000D01*
X77963179Y-127000000D01*
X114301017Y-127000000D01*
X114395757Y-127476288D01*
X114665552Y-127880065D01*
X115069329Y-128149860D01*
X115545617Y-128244600D01*
X115594383Y-128244600D01*
X116070671Y-128149860D01*
X116474448Y-127880065D01*
X116744243Y-127476288D01*
X116838983Y-127000000D01*
X116744243Y-126523712D01*
X116474448Y-126119935D01*
X116070671Y-125850140D01*
X115594383Y-125755400D01*
X115545617Y-125755400D01*
X115069329Y-125850140D01*
X114665552Y-126119935D01*
X114395757Y-126523712D01*
X114301017Y-127000000D01*
X77963179Y-127000000D01*
X77904243Y-126703712D01*
X77634448Y-126299935D01*
X77230671Y-126030140D01*
X76754383Y-125935400D01*
X76705617Y-125935400D01*
X76229329Y-126030140D01*
X75825552Y-126299935D01*
X75580841Y-126666172D01*
X75472688Y-126405053D01*
X75078490Y-125973179D01*
X74688338Y-125790324D01*
X74690671Y-125789860D01*
X75094448Y-125520065D01*
X75364243Y-125116288D01*
X75458983Y-124640000D01*
X75461017Y-124640000D01*
X75555757Y-125116288D01*
X75825552Y-125520065D01*
X76229329Y-125789860D01*
X76705617Y-125884600D01*
X76754383Y-125884600D01*
X77230671Y-125789860D01*
X77577178Y-125558331D01*
X81561379Y-125558331D01*
X81667496Y-125815151D01*
X81863815Y-126011814D01*
X82120450Y-126118378D01*
X82398331Y-126118621D01*
X82655151Y-126012504D01*
X82851814Y-125816185D01*
X82958378Y-125559550D01*
X82958621Y-125281669D01*
X82852504Y-125024849D01*
X82841007Y-125013331D01*
X107601379Y-125013331D01*
X107707496Y-125270151D01*
X107903815Y-125466814D01*
X108160450Y-125573378D01*
X108438331Y-125573621D01*
X108695151Y-125467504D01*
X108891814Y-125271185D01*
X108998378Y-125014550D01*
X108998621Y-124736669D01*
X108892504Y-124479849D01*
X108872690Y-124460000D01*
X114301017Y-124460000D01*
X114395757Y-124936288D01*
X114665552Y-125340065D01*
X115069329Y-125609860D01*
X115545617Y-125704600D01*
X115594383Y-125704600D01*
X116070671Y-125609860D01*
X116474448Y-125340065D01*
X116744243Y-124936288D01*
X116838983Y-124460000D01*
X116841017Y-124460000D01*
X116935757Y-124936288D01*
X117205552Y-125340065D01*
X117609329Y-125609860D01*
X118085617Y-125704600D01*
X118134383Y-125704600D01*
X118610671Y-125609860D01*
X119014448Y-125340065D01*
X119284243Y-124936288D01*
X119323619Y-124738331D01*
X126001379Y-124738331D01*
X126107496Y-124995151D01*
X126303815Y-125191814D01*
X126560450Y-125298378D01*
X126838331Y-125298621D01*
X127095151Y-125192504D01*
X127291814Y-124996185D01*
X127398378Y-124739550D01*
X127398621Y-124461669D01*
X127292504Y-124204849D01*
X127096185Y-124008186D01*
X126839550Y-123901622D01*
X126561669Y-123901379D01*
X126304849Y-124007496D01*
X126108186Y-124203815D01*
X126001622Y-124460450D01*
X126001379Y-124738331D01*
X119323619Y-124738331D01*
X119378983Y-124460000D01*
X119284243Y-123983712D01*
X119014448Y-123579935D01*
X118610671Y-123310140D01*
X118134383Y-123215400D01*
X118085617Y-123215400D01*
X117609329Y-123310140D01*
X117205552Y-123579935D01*
X116935757Y-123983712D01*
X116841017Y-124460000D01*
X116838983Y-124460000D01*
X116744243Y-123983712D01*
X116474448Y-123579935D01*
X116070671Y-123310140D01*
X115594383Y-123215400D01*
X115545617Y-123215400D01*
X115069329Y-123310140D01*
X114665552Y-123579935D01*
X114395757Y-123983712D01*
X114301017Y-124460000D01*
X108872690Y-124460000D01*
X108696185Y-124283186D01*
X108439550Y-124176622D01*
X108161669Y-124176379D01*
X107904849Y-124282496D01*
X107708186Y-124478815D01*
X107601622Y-124735450D01*
X107601379Y-125013331D01*
X82841007Y-125013331D01*
X82656185Y-124828186D01*
X82399550Y-124721622D01*
X82121669Y-124721379D01*
X81864849Y-124827496D01*
X81668186Y-125023815D01*
X81561622Y-125280450D01*
X81561379Y-125558331D01*
X77577178Y-125558331D01*
X77634448Y-125520065D01*
X77904243Y-125116288D01*
X77998983Y-124640000D01*
X77904243Y-124163712D01*
X77813785Y-124028331D01*
X102511379Y-124028331D01*
X102617496Y-124285151D01*
X102813815Y-124481814D01*
X103070450Y-124588378D01*
X103348331Y-124588621D01*
X103605151Y-124482504D01*
X103801814Y-124286185D01*
X103908378Y-124029550D01*
X103908621Y-123751669D01*
X103802504Y-123494849D01*
X103606185Y-123298186D01*
X103349550Y-123191622D01*
X103071669Y-123191379D01*
X102814849Y-123297496D01*
X102618186Y-123493815D01*
X102511622Y-123750450D01*
X102511379Y-124028331D01*
X77813785Y-124028331D01*
X77634448Y-123759935D01*
X77230671Y-123490140D01*
X76754383Y-123395400D01*
X76705617Y-123395400D01*
X76229329Y-123490140D01*
X75825552Y-123759935D01*
X75555757Y-124163712D01*
X75461017Y-124640000D01*
X75458983Y-124640000D01*
X75364243Y-124163712D01*
X75094448Y-123759935D01*
X74690671Y-123490140D01*
X74214383Y-123395400D01*
X74165617Y-123395400D01*
X73689329Y-123490140D01*
X73431000Y-123662750D01*
X73431000Y-123077250D01*
X73689329Y-123249860D01*
X74165617Y-123344600D01*
X74214383Y-123344600D01*
X74690671Y-123249860D01*
X75094448Y-122980065D01*
X75364243Y-122576288D01*
X75458983Y-122100000D01*
X75461017Y-122100000D01*
X75555757Y-122576288D01*
X75825552Y-122980065D01*
X76229329Y-123249860D01*
X76705617Y-123344600D01*
X76754383Y-123344600D01*
X77230671Y-123249860D01*
X77634448Y-122980065D01*
X77904243Y-122576288D01*
X77998983Y-122100000D01*
X77963179Y-121920000D01*
X114301017Y-121920000D01*
X114395757Y-122396288D01*
X114665552Y-122800065D01*
X115069329Y-123069860D01*
X115545617Y-123164600D01*
X115594383Y-123164600D01*
X116070671Y-123069860D01*
X116474448Y-122800065D01*
X116744243Y-122396288D01*
X116838983Y-121920000D01*
X116841017Y-121920000D01*
X116935757Y-122396288D01*
X117205552Y-122800065D01*
X117609329Y-123069860D01*
X118085617Y-123164600D01*
X118134383Y-123164600D01*
X118610671Y-123069860D01*
X118957178Y-122838331D01*
X126001379Y-122838331D01*
X126107496Y-123095151D01*
X126303815Y-123291814D01*
X126560450Y-123398378D01*
X126838331Y-123398621D01*
X127095151Y-123292504D01*
X127291814Y-123096185D01*
X127398378Y-122839550D01*
X127398621Y-122561669D01*
X127292504Y-122304849D01*
X127096185Y-122108186D01*
X126839550Y-122001622D01*
X126561669Y-122001379D01*
X126304849Y-122107496D01*
X126108186Y-122303815D01*
X126001622Y-122560450D01*
X126001379Y-122838331D01*
X118957178Y-122838331D01*
X119014448Y-122800065D01*
X119284243Y-122396288D01*
X119378983Y-121920000D01*
X119284243Y-121443712D01*
X119014448Y-121039935D01*
X118610671Y-120770140D01*
X118134383Y-120675400D01*
X118085617Y-120675400D01*
X117609329Y-120770140D01*
X117205552Y-121039935D01*
X116935757Y-121443712D01*
X116841017Y-121920000D01*
X116838983Y-121920000D01*
X116744243Y-121443712D01*
X116474448Y-121039935D01*
X116070671Y-120770140D01*
X115594383Y-120675400D01*
X115545617Y-120675400D01*
X115069329Y-120770140D01*
X114665552Y-121039935D01*
X114395757Y-121443712D01*
X114301017Y-121920000D01*
X77963179Y-121920000D01*
X77904243Y-121623712D01*
X77634448Y-121219935D01*
X77230671Y-120950140D01*
X76754383Y-120855400D01*
X76705617Y-120855400D01*
X76229329Y-120950140D01*
X75825552Y-121219935D01*
X75555757Y-121623712D01*
X75461017Y-122100000D01*
X75458983Y-122100000D01*
X75364243Y-121623712D01*
X75094448Y-121219935D01*
X74690671Y-120950140D01*
X74214383Y-120855400D01*
X74165617Y-120855400D01*
X73689329Y-120950140D01*
X73431000Y-121122750D01*
X73431000Y-120537250D01*
X73689329Y-120709860D01*
X74165617Y-120804600D01*
X74214383Y-120804600D01*
X74690671Y-120709860D01*
X75094448Y-120440065D01*
X75364243Y-120036288D01*
X75458983Y-119560000D01*
X75461017Y-119560000D01*
X75555757Y-120036288D01*
X75825552Y-120440065D01*
X76229329Y-120709860D01*
X76705617Y-120804600D01*
X76754383Y-120804600D01*
X77230671Y-120709860D01*
X77634448Y-120440065D01*
X77904243Y-120036288D01*
X77925717Y-119928331D01*
X83631379Y-119928331D01*
X83737496Y-120185151D01*
X83933815Y-120381814D01*
X84190450Y-120488378D01*
X84468331Y-120488621D01*
X84725151Y-120382504D01*
X84919664Y-120188331D01*
X95701379Y-120188331D01*
X95807496Y-120445151D01*
X96003815Y-120641814D01*
X96260450Y-120748378D01*
X96538331Y-120748621D01*
X96623738Y-120713331D01*
X97601379Y-120713331D01*
X97707496Y-120970151D01*
X97903815Y-121166814D01*
X98160450Y-121273378D01*
X98438331Y-121273621D01*
X98695151Y-121167504D01*
X98891814Y-120971185D01*
X98998378Y-120714550D01*
X98998621Y-120436669D01*
X98892504Y-120179849D01*
X98696185Y-119983186D01*
X98439550Y-119876622D01*
X98161669Y-119876379D01*
X97904849Y-119982496D01*
X97708186Y-120178815D01*
X97601622Y-120435450D01*
X97601379Y-120713331D01*
X96623738Y-120713331D01*
X96795151Y-120642504D01*
X96991814Y-120446185D01*
X97098378Y-120189550D01*
X97098621Y-119911669D01*
X96992504Y-119654849D01*
X96796185Y-119458186D01*
X96539550Y-119351622D01*
X96261669Y-119351379D01*
X96004849Y-119457496D01*
X95808186Y-119653815D01*
X95701622Y-119910450D01*
X95701379Y-120188331D01*
X84919664Y-120188331D01*
X84921814Y-120186185D01*
X85028378Y-119929550D01*
X85028621Y-119651669D01*
X84922504Y-119394849D01*
X84726185Y-119198186D01*
X84469550Y-119091622D01*
X84191669Y-119091379D01*
X83934849Y-119197496D01*
X83738186Y-119393815D01*
X83631622Y-119650450D01*
X83631379Y-119928331D01*
X77925717Y-119928331D01*
X77998983Y-119560000D01*
X77904243Y-119083712D01*
X77634448Y-118679935D01*
X77230671Y-118410140D01*
X76754383Y-118315400D01*
X76705617Y-118315400D01*
X76229329Y-118410140D01*
X75825552Y-118679935D01*
X75555757Y-119083712D01*
X75461017Y-119560000D01*
X75458983Y-119560000D01*
X75364243Y-119083712D01*
X75094448Y-118679935D01*
X74690671Y-118410140D01*
X74214383Y-118315400D01*
X74165617Y-118315400D01*
X73689329Y-118410140D01*
X73431000Y-118582750D01*
X73431000Y-117997250D01*
X73689329Y-118169860D01*
X74165617Y-118264600D01*
X74214383Y-118264600D01*
X74690671Y-118169860D01*
X75094448Y-117900065D01*
X75364243Y-117496288D01*
X75458983Y-117020000D01*
X75461017Y-117020000D01*
X75555757Y-117496288D01*
X75825552Y-117900065D01*
X76229329Y-118169860D01*
X76705617Y-118264600D01*
X76754383Y-118264600D01*
X77230671Y-118169860D01*
X77472416Y-118008331D01*
X80471379Y-118008331D01*
X80577496Y-118265151D01*
X80773815Y-118461814D01*
X80889828Y-118509987D01*
X80774849Y-118557496D01*
X80578186Y-118753815D01*
X80471622Y-119010450D01*
X80471379Y-119288331D01*
X80577496Y-119545151D01*
X80773815Y-119741814D01*
X81030450Y-119848378D01*
X81308331Y-119848621D01*
X81565151Y-119742504D01*
X81761814Y-119546185D01*
X81868378Y-119289550D01*
X81868621Y-119011669D01*
X81762504Y-118754849D01*
X81566185Y-118558186D01*
X81518370Y-118538331D01*
X96751379Y-118538331D01*
X96857496Y-118795151D01*
X97053815Y-118991814D01*
X97310450Y-119098378D01*
X97588331Y-119098621D01*
X97845151Y-118992504D01*
X98041814Y-118796185D01*
X98148378Y-118539550D01*
X98148523Y-118373455D01*
X98338331Y-118373621D01*
X98544746Y-118288331D01*
X105401379Y-118288331D01*
X105507496Y-118545151D01*
X105703815Y-118741814D01*
X105960450Y-118848378D01*
X106238331Y-118848621D01*
X106495151Y-118742504D01*
X106691814Y-118546185D01*
X106699736Y-118527107D01*
X106794996Y-118757651D01*
X106991315Y-118954314D01*
X107120999Y-119008164D01*
X107026622Y-119235450D01*
X107026379Y-119513331D01*
X107132496Y-119770151D01*
X107328815Y-119966814D01*
X107585450Y-120073378D01*
X107863331Y-120073621D01*
X108120151Y-119967504D01*
X108316814Y-119771185D01*
X108423378Y-119514550D01*
X108423495Y-119380000D01*
X114301017Y-119380000D01*
X114395757Y-119856288D01*
X114665552Y-120260065D01*
X115069329Y-120529860D01*
X115545617Y-120624600D01*
X115594383Y-120624600D01*
X116070671Y-120529860D01*
X116474448Y-120260065D01*
X116744243Y-119856288D01*
X116838983Y-119380000D01*
X116841017Y-119380000D01*
X116935757Y-119856288D01*
X117205552Y-120260065D01*
X117609329Y-120529860D01*
X118085617Y-120624600D01*
X118134383Y-120624600D01*
X118610671Y-120529860D01*
X119014448Y-120260065D01*
X119284243Y-119856288D01*
X119378983Y-119380000D01*
X119284243Y-118903712D01*
X119014448Y-118499935D01*
X118610671Y-118230140D01*
X118134383Y-118135400D01*
X118085617Y-118135400D01*
X117609329Y-118230140D01*
X117205552Y-118499935D01*
X116935757Y-118903712D01*
X116841017Y-119380000D01*
X116838983Y-119380000D01*
X116744243Y-118903712D01*
X116474448Y-118499935D01*
X116070671Y-118230140D01*
X115594383Y-118135400D01*
X115545617Y-118135400D01*
X115069329Y-118230140D01*
X114665552Y-118499935D01*
X114395757Y-118903712D01*
X114301017Y-119380000D01*
X108423495Y-119380000D01*
X108423621Y-119236669D01*
X108317504Y-118979849D01*
X108121185Y-118783186D01*
X107991501Y-118729336D01*
X108081193Y-118513331D01*
X108651379Y-118513331D01*
X108757496Y-118770151D01*
X108953815Y-118966814D01*
X109210450Y-119073378D01*
X109488331Y-119073621D01*
X109745151Y-118967504D01*
X109941814Y-118771185D01*
X110048378Y-118514550D01*
X110048621Y-118236669D01*
X109942504Y-117979849D01*
X109746185Y-117783186D01*
X109489550Y-117676622D01*
X109211669Y-117676379D01*
X108954849Y-117782496D01*
X108758186Y-117978815D01*
X108651622Y-118235450D01*
X108651379Y-118513331D01*
X108081193Y-118513331D01*
X108085878Y-118502050D01*
X108086121Y-118224169D01*
X107980004Y-117967349D01*
X107811460Y-117798510D01*
X107938331Y-117798621D01*
X108195151Y-117692504D01*
X108391814Y-117496185D01*
X108498378Y-117239550D01*
X108498621Y-116961669D01*
X108392504Y-116704849D01*
X108196185Y-116508186D01*
X107939550Y-116401622D01*
X107661669Y-116401379D01*
X107404849Y-116507496D01*
X107208186Y-116703815D01*
X107101622Y-116960450D01*
X107101379Y-117238331D01*
X107207496Y-117495151D01*
X107376040Y-117663990D01*
X107249169Y-117663879D01*
X106992349Y-117769996D01*
X106795686Y-117966315D01*
X106787764Y-117985393D01*
X106692504Y-117754849D01*
X106496185Y-117558186D01*
X106239550Y-117451622D01*
X105961669Y-117451379D01*
X105704849Y-117557496D01*
X105508186Y-117753815D01*
X105401622Y-118010450D01*
X105401379Y-118288331D01*
X98544746Y-118288331D01*
X98595151Y-118267504D01*
X98791814Y-118071185D01*
X98898378Y-117814550D01*
X98898621Y-117536669D01*
X98792504Y-117279849D01*
X98596185Y-117083186D01*
X98339550Y-116976622D01*
X98061669Y-116976379D01*
X97804849Y-117082496D01*
X97608186Y-117278815D01*
X97501622Y-117535450D01*
X97501477Y-117701545D01*
X97311669Y-117701379D01*
X97054849Y-117807496D01*
X96858186Y-118003815D01*
X96751622Y-118260450D01*
X96751379Y-118538331D01*
X81518370Y-118538331D01*
X81450172Y-118510013D01*
X81565151Y-118462504D01*
X81761814Y-118266185D01*
X81868378Y-118009550D01*
X81868621Y-117731669D01*
X81762504Y-117474849D01*
X81566185Y-117278186D01*
X81309550Y-117171622D01*
X81031669Y-117171379D01*
X80774849Y-117277496D01*
X80578186Y-117473815D01*
X80471622Y-117730450D01*
X80471379Y-118008331D01*
X77472416Y-118008331D01*
X77634448Y-117900065D01*
X77904243Y-117496288D01*
X77998983Y-117020000D01*
X77904243Y-116543712D01*
X77883944Y-116513331D01*
X105531379Y-116513331D01*
X105637496Y-116770151D01*
X105833815Y-116966814D01*
X106090450Y-117073378D01*
X106368331Y-117073621D01*
X106625151Y-116967504D01*
X106821814Y-116771185D01*
X106928378Y-116514550D01*
X106928621Y-116236669D01*
X106822504Y-115979849D01*
X106626185Y-115783186D01*
X106445914Y-115708331D01*
X107156379Y-115708331D01*
X107262496Y-115965151D01*
X107458815Y-116161814D01*
X107715450Y-116268378D01*
X107993331Y-116268621D01*
X108250151Y-116162504D01*
X108446814Y-115966185D01*
X108553378Y-115709550D01*
X108553621Y-115431669D01*
X108447504Y-115174849D01*
X108251185Y-114978186D01*
X107994550Y-114871622D01*
X107716669Y-114871379D01*
X107459849Y-114977496D01*
X107263186Y-115173815D01*
X107156622Y-115430450D01*
X107156379Y-115708331D01*
X106445914Y-115708331D01*
X106369550Y-115676622D01*
X106091669Y-115676379D01*
X105834849Y-115782496D01*
X105638186Y-115978815D01*
X105531622Y-116235450D01*
X105531379Y-116513331D01*
X77883944Y-116513331D01*
X77634448Y-116139935D01*
X77230671Y-115870140D01*
X76754383Y-115775400D01*
X76705617Y-115775400D01*
X76229329Y-115870140D01*
X75825552Y-116139935D01*
X75555757Y-116543712D01*
X75461017Y-117020000D01*
X75458983Y-117020000D01*
X75364243Y-116543712D01*
X75094448Y-116139935D01*
X74690671Y-115870140D01*
X74214383Y-115775400D01*
X74165617Y-115775400D01*
X73689329Y-115870140D01*
X73431000Y-116042750D01*
X73431000Y-115457250D01*
X73689329Y-115629860D01*
X74165617Y-115724600D01*
X74214383Y-115724600D01*
X74690671Y-115629860D01*
X75094448Y-115360065D01*
X75364243Y-114956288D01*
X75458983Y-114480000D01*
X75461017Y-114480000D01*
X75555757Y-114956288D01*
X75825552Y-115360065D01*
X76229329Y-115629860D01*
X76705617Y-115724600D01*
X76754383Y-115724600D01*
X77230671Y-115629860D01*
X77634448Y-115360065D01*
X77904243Y-114956288D01*
X77904565Y-114954669D01*
X87943864Y-114954669D01*
X88062514Y-115241823D01*
X88282021Y-115461714D01*
X88568968Y-115580864D01*
X88879669Y-115581136D01*
X89166823Y-115462486D01*
X89386714Y-115242979D01*
X89505864Y-114956032D01*
X89506136Y-114645331D01*
X89481518Y-114585750D01*
X114071400Y-114585750D01*
X114071400Y-115289910D01*
X114168073Y-115523299D01*
X114346702Y-115701927D01*
X114413819Y-115729728D01*
X114348541Y-115825266D01*
X114317936Y-115976400D01*
X114317936Y-117703600D01*
X114344503Y-117844790D01*
X114427946Y-117974465D01*
X114555266Y-118061459D01*
X114706400Y-118092064D01*
X116433600Y-118092064D01*
X116574790Y-118065497D01*
X116704465Y-117982054D01*
X116791459Y-117854734D01*
X116822064Y-117703600D01*
X116822064Y-115976400D01*
X116795497Y-115835210D01*
X116727318Y-115729257D01*
X116793298Y-115701927D01*
X116971927Y-115523299D01*
X117054529Y-115323881D01*
X117221510Y-115506821D01*
X117611662Y-115689676D01*
X117609329Y-115690140D01*
X117205552Y-115959935D01*
X116935757Y-116363712D01*
X116841017Y-116840000D01*
X116935757Y-117316288D01*
X117205552Y-117720065D01*
X117609329Y-117989860D01*
X118085617Y-118084600D01*
X118134383Y-118084600D01*
X118610671Y-117989860D01*
X119014448Y-117720065D01*
X119284243Y-117316288D01*
X119378983Y-116840000D01*
X119284243Y-116363712D01*
X119014448Y-115959935D01*
X118610671Y-115690140D01*
X118608338Y-115689676D01*
X118998490Y-115506821D01*
X119392688Y-115074947D01*
X119564958Y-114659026D01*
X119443817Y-114427000D01*
X118237000Y-114427000D01*
X118237000Y-114447000D01*
X117983000Y-114447000D01*
X117983000Y-114427000D01*
X115697000Y-114427000D01*
X115697000Y-114447000D01*
X115443000Y-114447000D01*
X115443000Y-114427000D01*
X114230150Y-114427000D01*
X114071400Y-114585750D01*
X89481518Y-114585750D01*
X89387486Y-114358177D01*
X89167979Y-114138286D01*
X88881032Y-114019136D01*
X88570331Y-114018864D01*
X88283177Y-114137514D01*
X88063286Y-114357021D01*
X87944136Y-114643968D01*
X87943864Y-114954669D01*
X77904565Y-114954669D01*
X77998983Y-114480000D01*
X77904243Y-114003712D01*
X77636049Y-113602331D01*
X83977379Y-113602331D01*
X84083496Y-113859151D01*
X84279815Y-114055814D01*
X84536450Y-114162378D01*
X84814331Y-114162621D01*
X85071151Y-114056504D01*
X85267814Y-113860185D01*
X85374378Y-113603550D01*
X85374621Y-113325669D01*
X85268504Y-113068849D01*
X85072185Y-112872186D01*
X85030000Y-112854669D01*
X87918864Y-112854669D01*
X88037514Y-113141823D01*
X88257021Y-113361714D01*
X88543968Y-113480864D01*
X88854669Y-113481136D01*
X89141823Y-113362486D01*
X89194310Y-113310090D01*
X114071400Y-113310090D01*
X114071400Y-114014250D01*
X114230150Y-114173000D01*
X115443000Y-114173000D01*
X115443000Y-112960150D01*
X115697000Y-112960150D01*
X115697000Y-114173000D01*
X117983000Y-114173000D01*
X117983000Y-112965531D01*
X118237000Y-112965531D01*
X118237000Y-114173000D01*
X119443817Y-114173000D01*
X119564958Y-113940974D01*
X119392688Y-113525053D01*
X119311769Y-113436400D01*
X121785536Y-113436400D01*
X121785536Y-115163600D01*
X121812103Y-115304790D01*
X121895546Y-115434465D01*
X122022866Y-115521459D01*
X122174000Y-115552064D01*
X124206000Y-115552064D01*
X124347190Y-115525497D01*
X124476865Y-115442054D01*
X124563859Y-115314734D01*
X124594464Y-115163600D01*
X124594464Y-114388331D01*
X126301379Y-114388331D01*
X126407496Y-114645151D01*
X126603815Y-114841814D01*
X126860450Y-114948378D01*
X127138331Y-114948621D01*
X127395151Y-114842504D01*
X127591814Y-114646185D01*
X127698378Y-114389550D01*
X127698444Y-114313331D01*
X129401379Y-114313331D01*
X129507496Y-114570151D01*
X129703815Y-114766814D01*
X129960450Y-114873378D01*
X130238331Y-114873621D01*
X130495151Y-114767504D01*
X130691814Y-114571185D01*
X130798378Y-114314550D01*
X130798621Y-114036669D01*
X130692504Y-113779849D01*
X130496185Y-113583186D01*
X130239550Y-113476622D01*
X129961669Y-113476379D01*
X129704849Y-113582496D01*
X129508186Y-113778815D01*
X129401622Y-114035450D01*
X129401379Y-114313331D01*
X127698444Y-114313331D01*
X127698621Y-114111669D01*
X127592504Y-113854849D01*
X127396185Y-113658186D01*
X127139550Y-113551622D01*
X126861669Y-113551379D01*
X126604849Y-113657496D01*
X126408186Y-113853815D01*
X126301622Y-114110450D01*
X126301379Y-114388331D01*
X124594464Y-114388331D01*
X124594464Y-113436400D01*
X124567897Y-113295210D01*
X124484454Y-113165535D01*
X124357134Y-113078541D01*
X124206000Y-113047936D01*
X122174000Y-113047936D01*
X122032810Y-113074503D01*
X121903135Y-113157946D01*
X121816141Y-113285266D01*
X121785536Y-113436400D01*
X119311769Y-113436400D01*
X118998490Y-113093179D01*
X118469027Y-112845032D01*
X118237000Y-112965531D01*
X117983000Y-112965531D01*
X117750973Y-112845032D01*
X117221510Y-113093179D01*
X117054529Y-113276119D01*
X116971927Y-113076701D01*
X116793298Y-112898073D01*
X116559909Y-112801400D01*
X115855750Y-112801400D01*
X115697000Y-112960150D01*
X115443000Y-112960150D01*
X115284250Y-112801400D01*
X114580091Y-112801400D01*
X114346702Y-112898073D01*
X114168073Y-113076701D01*
X114071400Y-113310090D01*
X89194310Y-113310090D01*
X89361714Y-113142979D01*
X89480864Y-112856032D01*
X89481136Y-112545331D01*
X89443676Y-112454669D01*
X90943864Y-112454669D01*
X91062514Y-112741823D01*
X91282021Y-112961714D01*
X91568968Y-113080864D01*
X91879669Y-113081136D01*
X92166823Y-112962486D01*
X92386714Y-112742979D01*
X92505864Y-112456032D01*
X92506136Y-112145331D01*
X92420606Y-111938331D01*
X108551379Y-111938331D01*
X108657496Y-112195151D01*
X108853815Y-112391814D01*
X109110450Y-112498378D01*
X109388331Y-112498621D01*
X109645151Y-112392504D01*
X109841814Y-112196185D01*
X109948378Y-111939550D01*
X109948535Y-111760000D01*
X121765631Y-111760000D01*
X121860371Y-112236288D01*
X122130166Y-112640065D01*
X122533943Y-112909860D01*
X123010231Y-113004600D01*
X123369769Y-113004600D01*
X123846057Y-112909860D01*
X124249834Y-112640065D01*
X124519629Y-112236288D01*
X124614369Y-111760000D01*
X124519629Y-111283712D01*
X124249834Y-110879935D01*
X123846057Y-110610140D01*
X123369769Y-110515400D01*
X123010231Y-110515400D01*
X122533943Y-110610140D01*
X122130166Y-110879935D01*
X121860371Y-111283712D01*
X121765631Y-111760000D01*
X109948535Y-111760000D01*
X109948621Y-111661669D01*
X109842504Y-111404849D01*
X109646185Y-111208186D01*
X109389550Y-111101622D01*
X109111669Y-111101379D01*
X108854849Y-111207496D01*
X108658186Y-111403815D01*
X108551622Y-111660450D01*
X108551379Y-111938331D01*
X92420606Y-111938331D01*
X92387486Y-111858177D01*
X92167979Y-111638286D01*
X91881032Y-111519136D01*
X91570331Y-111518864D01*
X91283177Y-111637514D01*
X91063286Y-111857021D01*
X90944136Y-112143968D01*
X90943864Y-112454669D01*
X89443676Y-112454669D01*
X89362486Y-112258177D01*
X89142979Y-112038286D01*
X88856032Y-111919136D01*
X88545331Y-111918864D01*
X88258177Y-112037514D01*
X88038286Y-112257021D01*
X87919136Y-112543968D01*
X87918864Y-112854669D01*
X85030000Y-112854669D01*
X84815550Y-112765622D01*
X84537669Y-112765379D01*
X84280849Y-112871496D01*
X84084186Y-113067815D01*
X83977622Y-113324450D01*
X83977379Y-113602331D01*
X77636049Y-113602331D01*
X77634448Y-113599935D01*
X77230671Y-113330140D01*
X76754383Y-113235400D01*
X76705617Y-113235400D01*
X76229329Y-113330140D01*
X75825552Y-113599935D01*
X75555757Y-114003712D01*
X75461017Y-114480000D01*
X75458983Y-114480000D01*
X75364243Y-114003712D01*
X75094448Y-113599935D01*
X74690671Y-113330140D01*
X74214383Y-113235400D01*
X74165617Y-113235400D01*
X73689329Y-113330140D01*
X73431000Y-113502750D01*
X73431000Y-112917250D01*
X73689329Y-113089860D01*
X74165617Y-113184600D01*
X74214383Y-113184600D01*
X74690671Y-113089860D01*
X75094448Y-112820065D01*
X75364243Y-112416288D01*
X75458983Y-111940000D01*
X75461017Y-111940000D01*
X75555757Y-112416288D01*
X75825552Y-112820065D01*
X76229329Y-113089860D01*
X76705617Y-113184600D01*
X76754383Y-113184600D01*
X77230671Y-113089860D01*
X77634448Y-112820065D01*
X77904243Y-112416288D01*
X77998983Y-111940000D01*
X77904243Y-111463712D01*
X77634448Y-111059935D01*
X77230671Y-110790140D01*
X76754383Y-110695400D01*
X76705617Y-110695400D01*
X76229329Y-110790140D01*
X75825552Y-111059935D01*
X75555757Y-111463712D01*
X75461017Y-111940000D01*
X75458983Y-111940000D01*
X75364243Y-111463712D01*
X75094448Y-111059935D01*
X74690671Y-110790140D01*
X74214383Y-110695400D01*
X74165617Y-110695400D01*
X73689329Y-110790140D01*
X73431000Y-110962750D01*
X73431000Y-110377250D01*
X73689329Y-110549860D01*
X74165617Y-110644600D01*
X74214383Y-110644600D01*
X74690671Y-110549860D01*
X75094448Y-110280065D01*
X75364243Y-109876288D01*
X75458983Y-109400000D01*
X75461017Y-109400000D01*
X75555757Y-109876288D01*
X75825552Y-110280065D01*
X76229329Y-110549860D01*
X76705617Y-110644600D01*
X76754383Y-110644600D01*
X77230671Y-110549860D01*
X77634448Y-110280065D01*
X77904243Y-109876288D01*
X77998983Y-109400000D01*
X77963179Y-109220000D01*
X121765631Y-109220000D01*
X121860371Y-109696288D01*
X122130166Y-110100065D01*
X122533943Y-110369860D01*
X123010231Y-110464600D01*
X123369769Y-110464600D01*
X123846057Y-110369860D01*
X124249834Y-110100065D01*
X124519629Y-109696288D01*
X124614369Y-109220000D01*
X124519629Y-108743712D01*
X124249834Y-108339935D01*
X123846057Y-108070140D01*
X123369769Y-107975400D01*
X123010231Y-107975400D01*
X122533943Y-108070140D01*
X122130166Y-108339935D01*
X121860371Y-108743712D01*
X121765631Y-109220000D01*
X77963179Y-109220000D01*
X77904243Y-108923712D01*
X77634448Y-108519935D01*
X77512319Y-108438331D01*
X96201379Y-108438331D01*
X96307496Y-108695151D01*
X96503815Y-108891814D01*
X96760450Y-108998378D01*
X97038331Y-108998621D01*
X97295151Y-108892504D01*
X97491814Y-108696185D01*
X97598378Y-108439550D01*
X97598621Y-108161669D01*
X97547659Y-108038331D01*
X106451379Y-108038331D01*
X106557496Y-108295151D01*
X106753815Y-108491814D01*
X107010450Y-108598378D01*
X107288331Y-108598621D01*
X107545151Y-108492504D01*
X107741814Y-108296185D01*
X107760438Y-108251331D01*
X110914379Y-108251331D01*
X111020496Y-108508151D01*
X111216815Y-108704814D01*
X111473450Y-108811378D01*
X111751331Y-108811621D01*
X112008151Y-108705504D01*
X112204814Y-108509185D01*
X112311378Y-108252550D01*
X112311621Y-107974669D01*
X112205504Y-107717849D01*
X112009185Y-107521186D01*
X111752550Y-107414622D01*
X111474669Y-107414379D01*
X111217849Y-107520496D01*
X111021186Y-107716815D01*
X110914622Y-107973450D01*
X110914379Y-108251331D01*
X107760438Y-108251331D01*
X107848378Y-108039550D01*
X107848621Y-107761669D01*
X107742504Y-107504849D01*
X107546185Y-107308186D01*
X107289550Y-107201622D01*
X107011669Y-107201379D01*
X106754849Y-107307496D01*
X106558186Y-107503815D01*
X106451622Y-107760450D01*
X106451379Y-108038331D01*
X97547659Y-108038331D01*
X97492504Y-107904849D01*
X97296185Y-107708186D01*
X97039550Y-107601622D01*
X96761669Y-107601379D01*
X96504849Y-107707496D01*
X96308186Y-107903815D01*
X96201622Y-108160450D01*
X96201379Y-108438331D01*
X77512319Y-108438331D01*
X77230671Y-108250140D01*
X76754383Y-108155400D01*
X76705617Y-108155400D01*
X76229329Y-108250140D01*
X75825552Y-108519935D01*
X75555757Y-108923712D01*
X75461017Y-109400000D01*
X75458983Y-109400000D01*
X75364243Y-108923712D01*
X75094448Y-108519935D01*
X74690671Y-108250140D01*
X74214383Y-108155400D01*
X74165617Y-108155400D01*
X73689329Y-108250140D01*
X73431000Y-108422750D01*
X73431000Y-107837250D01*
X73689329Y-108009860D01*
X74165617Y-108104600D01*
X74214383Y-108104600D01*
X74690671Y-108009860D01*
X75094448Y-107740065D01*
X75364243Y-107336288D01*
X75458983Y-106860000D01*
X75364243Y-106383712D01*
X75094448Y-105979935D01*
X74690671Y-105710140D01*
X74688338Y-105709676D01*
X75078490Y-105526821D01*
X75245471Y-105343881D01*
X75328073Y-105543299D01*
X75506702Y-105721927D01*
X75740091Y-105818600D01*
X76067007Y-105818600D01*
X75825552Y-105979935D01*
X75555757Y-106383712D01*
X75461017Y-106860000D01*
X75555757Y-107336288D01*
X75825552Y-107740065D01*
X76229329Y-108009860D01*
X76705617Y-108104600D01*
X76754383Y-108104600D01*
X77230671Y-108009860D01*
X77634448Y-107740065D01*
X77904243Y-107336288D01*
X77998983Y-106860000D01*
X77959863Y-106663331D01*
X86701379Y-106663331D01*
X86807496Y-106920151D01*
X87003815Y-107116814D01*
X87260450Y-107223378D01*
X87538331Y-107223621D01*
X87795151Y-107117504D01*
X87991814Y-106921185D01*
X88098378Y-106664550D01*
X88098621Y-106386669D01*
X87992504Y-106129849D01*
X87851234Y-105988331D01*
X92751379Y-105988331D01*
X92857496Y-106245151D01*
X93053815Y-106441814D01*
X93310450Y-106548378D01*
X93588331Y-106548621D01*
X93845151Y-106442504D01*
X94041814Y-106246185D01*
X94148378Y-105989550D01*
X94148539Y-105804669D01*
X111502864Y-105804669D01*
X111621514Y-106091823D01*
X111841021Y-106311714D01*
X112127968Y-106430864D01*
X112438669Y-106431136D01*
X112725823Y-106312486D01*
X112945714Y-106092979D01*
X113064864Y-105806032D01*
X113065136Y-105495331D01*
X112946486Y-105208177D01*
X112726979Y-104988286D01*
X112440032Y-104869136D01*
X112129331Y-104868864D01*
X111842177Y-104987514D01*
X111622286Y-105207021D01*
X111503136Y-105493968D01*
X111502864Y-105804669D01*
X94148539Y-105804669D01*
X94148621Y-105711669D01*
X94042504Y-105454849D01*
X93846185Y-105258186D01*
X93589550Y-105151622D01*
X93311669Y-105151379D01*
X93054849Y-105257496D01*
X92858186Y-105453815D01*
X92751622Y-105710450D01*
X92751379Y-105988331D01*
X87851234Y-105988331D01*
X87796185Y-105933186D01*
X87539550Y-105826622D01*
X87261669Y-105826379D01*
X87004849Y-105932496D01*
X86808186Y-106128815D01*
X86701622Y-106385450D01*
X86701379Y-106663331D01*
X77959863Y-106663331D01*
X77904243Y-106383712D01*
X77634448Y-105979935D01*
X77553476Y-105925831D01*
X83888879Y-105925831D01*
X83994996Y-106182651D01*
X84191315Y-106379314D01*
X84447950Y-106485878D01*
X84725831Y-106486121D01*
X84982651Y-106380004D01*
X85179314Y-106183685D01*
X85285878Y-105927050D01*
X85286121Y-105649169D01*
X85180004Y-105392349D01*
X84983685Y-105195686D01*
X84727050Y-105089122D01*
X84449169Y-105088879D01*
X84192349Y-105194996D01*
X83995686Y-105391315D01*
X83889122Y-105647950D01*
X83888879Y-105925831D01*
X77553476Y-105925831D01*
X77392993Y-105818600D01*
X77719909Y-105818600D01*
X77953298Y-105721927D01*
X78131927Y-105543299D01*
X78228600Y-105309910D01*
X78228600Y-104605750D01*
X78069850Y-104447000D01*
X76857000Y-104447000D01*
X76857000Y-104467000D01*
X76603000Y-104467000D01*
X76603000Y-104447000D01*
X74317000Y-104447000D01*
X74317000Y-104467000D01*
X74063000Y-104467000D01*
X74063000Y-104447000D01*
X74043000Y-104447000D01*
X74043000Y-104193000D01*
X74063000Y-104193000D01*
X74063000Y-102985531D01*
X74317000Y-102985531D01*
X74317000Y-104193000D01*
X76603000Y-104193000D01*
X76603000Y-102980150D01*
X76857000Y-102980150D01*
X76857000Y-104193000D01*
X78069850Y-104193000D01*
X78228600Y-104034250D01*
X78228600Y-103988331D01*
X83131379Y-103988331D01*
X83237496Y-104245151D01*
X83433815Y-104441814D01*
X83690450Y-104548378D01*
X83968331Y-104548621D01*
X84088358Y-104499026D01*
X121582642Y-104499026D01*
X121585291Y-104514791D01*
X121839268Y-105042036D01*
X122275680Y-105431954D01*
X122548243Y-105527296D01*
X122533943Y-105530140D01*
X122130166Y-105799935D01*
X121860371Y-106203712D01*
X121765631Y-106680000D01*
X121860371Y-107156288D01*
X122130166Y-107560065D01*
X122533943Y-107829860D01*
X123010231Y-107924600D01*
X123369769Y-107924600D01*
X123846057Y-107829860D01*
X124249834Y-107560065D01*
X124519629Y-107156288D01*
X124614369Y-106680000D01*
X124519629Y-106203712D01*
X124249834Y-105799935D01*
X123846057Y-105530140D01*
X123831757Y-105527296D01*
X124104320Y-105431954D01*
X124540732Y-105042036D01*
X124794709Y-104514791D01*
X124797358Y-104499026D01*
X124676217Y-104267000D01*
X123317000Y-104267000D01*
X123317000Y-104287000D01*
X123063000Y-104287000D01*
X123063000Y-104267000D01*
X121703783Y-104267000D01*
X121582642Y-104499026D01*
X84088358Y-104499026D01*
X84225151Y-104442504D01*
X84421814Y-104246185D01*
X84528378Y-103989550D01*
X84528580Y-103758331D01*
X85801379Y-103758331D01*
X85907496Y-104015151D01*
X86103815Y-104211814D01*
X86360450Y-104318378D01*
X86638331Y-104318621D01*
X86895151Y-104212504D01*
X87091814Y-104016185D01*
X87189481Y-103780974D01*
X121582642Y-103780974D01*
X121703783Y-104013000D01*
X123063000Y-104013000D01*
X123063000Y-102799076D01*
X123317000Y-102799076D01*
X123317000Y-104013000D01*
X124676217Y-104013000D01*
X124797358Y-103780974D01*
X124794709Y-103765209D01*
X124540732Y-103237964D01*
X124429219Y-103138331D01*
X131601379Y-103138331D01*
X131707496Y-103395151D01*
X131903815Y-103591814D01*
X132160450Y-103698378D01*
X132438331Y-103698621D01*
X132695151Y-103592504D01*
X132891814Y-103396185D01*
X132998378Y-103139550D01*
X132998621Y-102861669D01*
X132892504Y-102604849D01*
X132696185Y-102408186D01*
X132439550Y-102301622D01*
X132161669Y-102301379D01*
X131904849Y-102407496D01*
X131708186Y-102603815D01*
X131601622Y-102860450D01*
X131601379Y-103138331D01*
X124429219Y-103138331D01*
X124104320Y-102848046D01*
X123551913Y-102654816D01*
X123317000Y-102799076D01*
X123063000Y-102799076D01*
X122828087Y-102654816D01*
X122275680Y-102848046D01*
X121839268Y-103237964D01*
X121585291Y-103765209D01*
X121582642Y-103780974D01*
X87189481Y-103780974D01*
X87198378Y-103759550D01*
X87198621Y-103481669D01*
X87092504Y-103224849D01*
X86896185Y-103028186D01*
X86639550Y-102921622D01*
X86361669Y-102921379D01*
X86104849Y-103027496D01*
X85908186Y-103223815D01*
X85801622Y-103480450D01*
X85801379Y-103758331D01*
X84528580Y-103758331D01*
X84528621Y-103711669D01*
X84422504Y-103454849D01*
X84226185Y-103258186D01*
X83969550Y-103151622D01*
X83691669Y-103151379D01*
X83434849Y-103257496D01*
X83238186Y-103453815D01*
X83131622Y-103710450D01*
X83131379Y-103988331D01*
X78228600Y-103988331D01*
X78228600Y-103330090D01*
X78131927Y-103096701D01*
X77953298Y-102918073D01*
X77719909Y-102821400D01*
X77015750Y-102821400D01*
X76857000Y-102980150D01*
X76603000Y-102980150D01*
X76444250Y-102821400D01*
X75740091Y-102821400D01*
X75506702Y-102918073D01*
X75328073Y-103096701D01*
X75245471Y-103296119D01*
X75078490Y-103113179D01*
X74549027Y-102865032D01*
X74317000Y-102985531D01*
X74063000Y-102985531D01*
X73830973Y-102865032D01*
X73431000Y-103052490D01*
X73431000Y-101600000D01*
X114301017Y-101600000D01*
X114395757Y-102076288D01*
X114665552Y-102480065D01*
X115069329Y-102749860D01*
X115545617Y-102844600D01*
X115594383Y-102844600D01*
X116070671Y-102749860D01*
X116474448Y-102480065D01*
X116744243Y-102076288D01*
X116838983Y-101600000D01*
X116841017Y-101600000D01*
X116935757Y-102076288D01*
X117205552Y-102480065D01*
X117609329Y-102749860D01*
X118085617Y-102844600D01*
X118134383Y-102844600D01*
X118610671Y-102749860D01*
X119014448Y-102480065D01*
X119284243Y-102076288D01*
X119378983Y-101600000D01*
X119284243Y-101123712D01*
X119014448Y-100719935D01*
X118610671Y-100450140D01*
X118134383Y-100355400D01*
X118085617Y-100355400D01*
X117609329Y-100450140D01*
X117205552Y-100719935D01*
X116935757Y-101123712D01*
X116841017Y-101600000D01*
X116838983Y-101600000D01*
X116744243Y-101123712D01*
X116474448Y-100719935D01*
X116070671Y-100450140D01*
X115594383Y-100355400D01*
X115545617Y-100355400D01*
X115069329Y-100450140D01*
X114665552Y-100719935D01*
X114395757Y-101123712D01*
X114301017Y-101600000D01*
X73431000Y-101600000D01*
X73431000Y-100428331D01*
X85661379Y-100428331D01*
X85767496Y-100685151D01*
X85963815Y-100881814D01*
X86220450Y-100988378D01*
X86498331Y-100988621D01*
X86755151Y-100882504D01*
X86951814Y-100686185D01*
X86955075Y-100678331D01*
X95426379Y-100678331D01*
X95426388Y-100678352D01*
X95426379Y-100688331D01*
X95532496Y-100945151D01*
X95728815Y-101141814D01*
X95985450Y-101248378D01*
X96263331Y-101248621D01*
X96520151Y-101142504D01*
X96716814Y-100946185D01*
X96823378Y-100689550D01*
X96823621Y-100411669D01*
X96823612Y-100411648D01*
X96823621Y-100401669D01*
X96717504Y-100144849D01*
X96521185Y-99948186D01*
X96264550Y-99841622D01*
X95986669Y-99841379D01*
X95729849Y-99947496D01*
X95533186Y-100143815D01*
X95426622Y-100400450D01*
X95426379Y-100678331D01*
X86955075Y-100678331D01*
X87058378Y-100429550D01*
X87058621Y-100151669D01*
X86952504Y-99894849D01*
X86756185Y-99698186D01*
X86499550Y-99591622D01*
X86221669Y-99591379D01*
X85964849Y-99697496D01*
X85768186Y-99893815D01*
X85661622Y-100150450D01*
X85661379Y-100428331D01*
X73431000Y-100428331D01*
X73431000Y-98980331D01*
X85341379Y-98980331D01*
X85447496Y-99237151D01*
X85643815Y-99433814D01*
X85900450Y-99540378D01*
X86178331Y-99540621D01*
X86435151Y-99434504D01*
X86631814Y-99238185D01*
X86738378Y-98981550D01*
X86738621Y-98703669D01*
X86632504Y-98446849D01*
X86436185Y-98250186D01*
X86306654Y-98196400D01*
X114317936Y-98196400D01*
X114317936Y-99923600D01*
X114344503Y-100064790D01*
X114427946Y-100194465D01*
X114555266Y-100281459D01*
X114706400Y-100312064D01*
X116433600Y-100312064D01*
X116574790Y-100285497D01*
X116704465Y-100202054D01*
X116791459Y-100074734D01*
X116822064Y-99923600D01*
X116822064Y-99060000D01*
X116841017Y-99060000D01*
X116935757Y-99536288D01*
X117205552Y-99940065D01*
X117609329Y-100209860D01*
X118085617Y-100304600D01*
X118134383Y-100304600D01*
X118610671Y-100209860D01*
X119014448Y-99940065D01*
X119284243Y-99536288D01*
X119378983Y-99060000D01*
X119284243Y-98583712D01*
X119014448Y-98179935D01*
X118610671Y-97910140D01*
X118134383Y-97815400D01*
X118085617Y-97815400D01*
X117609329Y-97910140D01*
X117205552Y-98179935D01*
X116935757Y-98583712D01*
X116841017Y-99060000D01*
X116822064Y-99060000D01*
X116822064Y-98196400D01*
X116795497Y-98055210D01*
X116712054Y-97925535D01*
X116584734Y-97838541D01*
X116433600Y-97807936D01*
X114706400Y-97807936D01*
X114565210Y-97834503D01*
X114435535Y-97917946D01*
X114348541Y-98045266D01*
X114317936Y-98196400D01*
X86306654Y-98196400D01*
X86179550Y-98143622D01*
X85901669Y-98143379D01*
X85644849Y-98249496D01*
X85448186Y-98445815D01*
X85341622Y-98702450D01*
X85341379Y-98980331D01*
X73431000Y-98980331D01*
X73431000Y-92431000D01*
X135569000Y-92431000D01*
X135569000Y-141569000D01*
G36*
X74317000Y-127053000D02*
X74337000Y-127053000D01*
X74337000Y-127307000D01*
X74317000Y-127307000D01*
X74317000Y-127327000D01*
X74063000Y-127327000D01*
X74063000Y-127307000D01*
X74043000Y-127307000D01*
X74043000Y-127053000D01*
X74063000Y-127053000D01*
X74063000Y-127033000D01*
X74317000Y-127033000D01*
X74317000Y-127053000D01*
X74317000Y-127053000D01*
G37*
X74317000Y-127053000D02*
X74337000Y-127053000D01*
X74337000Y-127307000D01*
X74317000Y-127307000D01*
X74317000Y-127327000D01*
X74063000Y-127327000D01*
X74063000Y-127307000D01*
X74043000Y-127307000D01*
X74043000Y-127053000D01*
X74063000Y-127053000D01*
X74063000Y-127033000D01*
X74317000Y-127033000D01*
X74317000Y-127053000D01*
M02*
