G04 #@! TF.FileFunction,Soldermask,Top*
%FSLAX46Y46*%
G04 Gerber Fmt 4.6, Leading zero omitted, Abs format (unit mm)*
G04 Created by KiCad (PCBNEW 4.0.1-stable) date 01/02/2016 19:28:03*
%MOMM*%
G01*
G04 APERTURE LIST*
%ADD10C,0.100000*%
%ADD11R,0.500000X0.600000*%
%ADD12R,1.500000X0.450000*%
%ADD13R,1.300000X0.250000*%
%ADD14R,0.250000X1.300000*%
%ADD15R,4.000000X4.000000*%
%ADD16R,0.750000X0.800000*%
%ADD17R,0.600000X0.500000*%
%ADD18R,0.800000X0.750000*%
%ADD19R,1.000000X1.250000*%
%ADD20R,1.250000X1.000000*%
%ADD21R,1.000000X1.600000*%
%ADD22R,1.600000X1.000000*%
%ADD23R,1.220000X0.910000*%
%ADD24R,1.501140X2.799080*%
%ADD25R,1.727200X1.727200*%
%ADD26O,1.727200X1.727200*%
%ADD27C,1.524000*%
%ADD28R,2.032000X1.727200*%
%ADD29O,2.032000X1.727200*%
%ADD30R,0.600000X0.400000*%
%ADD31R,0.400000X0.600000*%
%ADD32R,1.060000X0.650000*%
%ADD33R,0.300000X1.500000*%
%ADD34R,1.500000X0.300000*%
%ADD35R,1.000000X0.600000*%
%ADD36R,1.600000X2.000000*%
G04 APERTURE END LIST*
D10*
D11*
X125600000Y-111480000D03*
X125600000Y-110380000D03*
D12*
X128710000Y-134555000D03*
X128710000Y-133905000D03*
X128710000Y-133255000D03*
X128710000Y-132605000D03*
X128710000Y-131955000D03*
X128710000Y-131305000D03*
X128710000Y-130655000D03*
X128710000Y-130005000D03*
X122810000Y-130005000D03*
X122810000Y-130655000D03*
X122810000Y-131305000D03*
X122810000Y-131955000D03*
X122810000Y-132605000D03*
X122810000Y-133255000D03*
X122810000Y-133905000D03*
X122810000Y-134555000D03*
D13*
X85058000Y-98342000D03*
X85058000Y-98842000D03*
X85058000Y-99342000D03*
X85058000Y-99842000D03*
X85058000Y-100342000D03*
X85058000Y-100842000D03*
X85058000Y-101342000D03*
X85058000Y-101842000D03*
X85058000Y-102342000D03*
X85058000Y-102842000D03*
X85058000Y-103342000D03*
X85058000Y-103842000D03*
D14*
X86658000Y-105442000D03*
X87158000Y-105442000D03*
X87658000Y-105442000D03*
X88158000Y-105442000D03*
X88658000Y-105442000D03*
X89158000Y-105442000D03*
X89658000Y-105442000D03*
X90158000Y-105442000D03*
X90658000Y-105442000D03*
X91158000Y-105442000D03*
X91658000Y-105442000D03*
X92158000Y-105442000D03*
D13*
X93758000Y-103842000D03*
X93758000Y-103342000D03*
X93758000Y-102842000D03*
X93758000Y-102342000D03*
X93758000Y-101842000D03*
X93758000Y-101342000D03*
X93758000Y-100842000D03*
X93758000Y-100342000D03*
X93758000Y-99842000D03*
X93758000Y-99342000D03*
X93758000Y-98842000D03*
X93758000Y-98342000D03*
D14*
X92158000Y-96742000D03*
X91658000Y-96742000D03*
X91158000Y-96742000D03*
X90658000Y-96742000D03*
X90158000Y-96742000D03*
X89658000Y-96742000D03*
X89158000Y-96742000D03*
X88658000Y-96742000D03*
X88158000Y-96742000D03*
X87658000Y-96742000D03*
X87158000Y-96742000D03*
X86658000Y-96742000D03*
D15*
X89408000Y-101092000D03*
D16*
X126300000Y-97850000D03*
X126300000Y-99350000D03*
D17*
X130300000Y-101350000D03*
X129200000Y-101350000D03*
D18*
X130525000Y-96225000D03*
X129025000Y-96225000D03*
D19*
X130725000Y-103400000D03*
X128725000Y-103400000D03*
D16*
X131030000Y-132420000D03*
X131030000Y-130920000D03*
D20*
X124650000Y-123700000D03*
X124650000Y-125700000D03*
D18*
X83910000Y-96790000D03*
X82410000Y-96790000D03*
X87110000Y-128270000D03*
X85610000Y-128270000D03*
D19*
X130475000Y-109150000D03*
X128475000Y-109150000D03*
D17*
X128950000Y-116000000D03*
X127850000Y-116000000D03*
D21*
X130490000Y-116660000D03*
X133490000Y-116660000D03*
X130652000Y-119380000D03*
X133652000Y-119380000D03*
D18*
X83910000Y-95280000D03*
X82410000Y-95280000D03*
X87110000Y-126746000D03*
X85610000Y-126746000D03*
D22*
X74725000Y-139125000D03*
X74725000Y-136125000D03*
X133300000Y-97650000D03*
X133300000Y-100650000D03*
D16*
X85525000Y-93750000D03*
X85525000Y-95250000D03*
D18*
X87110000Y-125222000D03*
X85610000Y-125222000D03*
D17*
X83760000Y-93890000D03*
X82660000Y-93890000D03*
X87164000Y-123698000D03*
X86064000Y-123698000D03*
D11*
X96770000Y-99440000D03*
X96770000Y-100540000D03*
D17*
X98594000Y-132842000D03*
X97494000Y-132842000D03*
D11*
X95480000Y-99440000D03*
X95480000Y-100540000D03*
D17*
X113580000Y-112014000D03*
X112480000Y-112014000D03*
D11*
X88300000Y-94000000D03*
X88300000Y-92900000D03*
X88760000Y-126220000D03*
X88760000Y-125120000D03*
D17*
X86572000Y-108458000D03*
X87672000Y-108458000D03*
D16*
X78486000Y-98056000D03*
X78486000Y-99556000D03*
X83820000Y-131052000D03*
X83820000Y-129552000D03*
D17*
X88625000Y-140000000D03*
X89725000Y-140000000D03*
D11*
X80010000Y-98256000D03*
X80010000Y-99356000D03*
X85344000Y-131106000D03*
X85344000Y-130006000D03*
D17*
X86572000Y-107188000D03*
X87672000Y-107188000D03*
X88630000Y-141040000D03*
X89730000Y-141040000D03*
X83310000Y-101810000D03*
X82210000Y-101810000D03*
D11*
X82804000Y-133646000D03*
X82804000Y-132546000D03*
D17*
X83354000Y-100584000D03*
X82254000Y-100584000D03*
D11*
X84074000Y-133646000D03*
X84074000Y-132546000D03*
D19*
X112284000Y-107442000D03*
X114284000Y-107442000D03*
D18*
X108300000Y-123950000D03*
X106800000Y-123950000D03*
D23*
X132500000Y-113085000D03*
X132500000Y-109815000D03*
D24*
X132050440Y-106175000D03*
X127549560Y-106175000D03*
D25*
X76730000Y-104320000D03*
D26*
X74190000Y-104320000D03*
X76730000Y-106860000D03*
X74190000Y-106860000D03*
X76730000Y-109400000D03*
X74190000Y-109400000D03*
X76730000Y-111940000D03*
X74190000Y-111940000D03*
X76730000Y-114480000D03*
X74190000Y-114480000D03*
X76730000Y-117020000D03*
X74190000Y-117020000D03*
X76730000Y-119560000D03*
X74190000Y-119560000D03*
X76730000Y-122100000D03*
X74190000Y-122100000D03*
X76730000Y-124640000D03*
X74190000Y-124640000D03*
X76730000Y-127180000D03*
X74190000Y-127180000D03*
X76730000Y-129720000D03*
X74190000Y-129720000D03*
X76730000Y-132260000D03*
X74190000Y-132260000D03*
D27*
X131220000Y-134010000D03*
X131100000Y-128910000D03*
X132875000Y-95575000D03*
X128050000Y-119750000D03*
D25*
X115570000Y-116840000D03*
D26*
X118110000Y-116840000D03*
X115570000Y-119380000D03*
X118110000Y-119380000D03*
X115570000Y-121920000D03*
X118110000Y-121920000D03*
X115570000Y-124460000D03*
X118110000Y-124460000D03*
X115570000Y-127000000D03*
X118110000Y-127000000D03*
X115570000Y-129540000D03*
X118110000Y-129540000D03*
X115570000Y-132080000D03*
X118110000Y-132080000D03*
D25*
X115570000Y-99060000D03*
D26*
X118110000Y-99060000D03*
X115570000Y-101600000D03*
X118110000Y-101600000D03*
D25*
X115570000Y-114300000D03*
D26*
X118110000Y-114300000D03*
D28*
X123190000Y-114300000D03*
D29*
X123190000Y-111760000D03*
X123190000Y-109220000D03*
X123190000Y-106680000D03*
X123190000Y-104140000D03*
D30*
X133000000Y-125600000D03*
X133000000Y-126500000D03*
D31*
X129275000Y-121900000D03*
X130175000Y-121900000D03*
X126150000Y-123700000D03*
X127050000Y-123700000D03*
X129030000Y-114600000D03*
X128130000Y-114600000D03*
X132090000Y-114650000D03*
X131190000Y-114650000D03*
D30*
X128240000Y-118130000D03*
X128240000Y-117230000D03*
D31*
X82514000Y-113464000D03*
X81614000Y-113464000D03*
X82260000Y-120070000D03*
X81360000Y-120070000D03*
X82514000Y-105590000D03*
X81614000Y-105590000D03*
X82260000Y-124132000D03*
X81360000Y-124132000D03*
X87950000Y-95250000D03*
X87050000Y-95250000D03*
D30*
X87050000Y-94100000D03*
X87050000Y-93200000D03*
D31*
X89540000Y-127620000D03*
X88640000Y-127620000D03*
D30*
X90110000Y-126140000D03*
X90110000Y-125240000D03*
X83312000Y-99256000D03*
X83312000Y-98356000D03*
X81788000Y-99256000D03*
X81788000Y-98356000D03*
X85344000Y-133292000D03*
X85344000Y-132392000D03*
X81484000Y-133292000D03*
X81484000Y-132392000D03*
D31*
X88958000Y-107188000D03*
X89858000Y-107188000D03*
X122050000Y-122000000D03*
X121150000Y-122000000D03*
D32*
X79011000Y-138467000D03*
X79011000Y-137517000D03*
X79011000Y-136567000D03*
X76811000Y-136567000D03*
X76811000Y-138467000D03*
D13*
X87090000Y-131362000D03*
X87090000Y-131862000D03*
X87090000Y-132362000D03*
X87090000Y-132862000D03*
X87090000Y-133362000D03*
X87090000Y-133862000D03*
X87090000Y-134362000D03*
X87090000Y-134862000D03*
X87090000Y-135362000D03*
X87090000Y-135862000D03*
X87090000Y-136362000D03*
X87090000Y-136862000D03*
D14*
X88690000Y-138462000D03*
X89190000Y-138462000D03*
X89690000Y-138462000D03*
X90190000Y-138462000D03*
X90690000Y-138462000D03*
X91190000Y-138462000D03*
X91690000Y-138462000D03*
X92190000Y-138462000D03*
X92690000Y-138462000D03*
X93190000Y-138462000D03*
X93690000Y-138462000D03*
X94190000Y-138462000D03*
D13*
X95790000Y-136862000D03*
X95790000Y-136362000D03*
X95790000Y-135862000D03*
X95790000Y-135362000D03*
X95790000Y-134862000D03*
X95790000Y-134362000D03*
X95790000Y-133862000D03*
X95790000Y-133362000D03*
X95790000Y-132862000D03*
X95790000Y-132362000D03*
X95790000Y-131862000D03*
X95790000Y-131362000D03*
D14*
X94190000Y-129762000D03*
X93690000Y-129762000D03*
X93190000Y-129762000D03*
X92690000Y-129762000D03*
X92190000Y-129762000D03*
X91690000Y-129762000D03*
X91190000Y-129762000D03*
X90690000Y-129762000D03*
X90190000Y-129762000D03*
X89690000Y-129762000D03*
X89190000Y-129762000D03*
X88690000Y-129762000D03*
D15*
X91440000Y-134112000D03*
D33*
X108870000Y-106600000D03*
X108370000Y-106600000D03*
X107870000Y-106600000D03*
X107370000Y-106600000D03*
X106870000Y-106600000D03*
X106370000Y-106600000D03*
X105870000Y-106600000D03*
X105370000Y-106600000D03*
X104870000Y-106600000D03*
X104370000Y-106600000D03*
X103870000Y-106600000D03*
X103370000Y-106600000D03*
X102870000Y-106600000D03*
X102370000Y-106600000D03*
X101870000Y-106600000D03*
X101370000Y-106600000D03*
X100870000Y-106600000D03*
X100370000Y-106600000D03*
X99870000Y-106600000D03*
X99370000Y-106600000D03*
X98870000Y-106600000D03*
X98370000Y-106600000D03*
X97870000Y-106600000D03*
X97370000Y-106600000D03*
X96870000Y-106600000D03*
D34*
X95170000Y-108300000D03*
X95170000Y-108800000D03*
X95170000Y-109300000D03*
X95170000Y-109800000D03*
X95170000Y-110300000D03*
X95170000Y-110800000D03*
X95170000Y-111300000D03*
X95170000Y-111800000D03*
X95170000Y-112300000D03*
X95170000Y-112800000D03*
X95170000Y-113300000D03*
X95170000Y-113800000D03*
X95170000Y-114300000D03*
X95170000Y-114800000D03*
X95170000Y-115300000D03*
X95170000Y-115800000D03*
X95170000Y-116300000D03*
X95170000Y-116800000D03*
X95170000Y-117300000D03*
X95170000Y-117800000D03*
X95170000Y-118300000D03*
X95170000Y-118800000D03*
X95170000Y-119300000D03*
X95170000Y-119800000D03*
X95170000Y-120300000D03*
D33*
X96870000Y-122000000D03*
X97370000Y-122000000D03*
X97870000Y-122000000D03*
X98370000Y-122000000D03*
X98870000Y-122000000D03*
X99370000Y-122000000D03*
X99870000Y-122000000D03*
X100370000Y-122000000D03*
X100870000Y-122000000D03*
X101370000Y-122000000D03*
X101870000Y-122000000D03*
X102370000Y-122000000D03*
X102870000Y-122000000D03*
X103370000Y-122000000D03*
X103870000Y-122000000D03*
X104370000Y-122000000D03*
X104870000Y-122000000D03*
X105370000Y-122000000D03*
X105870000Y-122000000D03*
X106370000Y-122000000D03*
X106870000Y-122000000D03*
X107370000Y-122000000D03*
X107870000Y-122000000D03*
X108370000Y-122000000D03*
X108870000Y-122000000D03*
D34*
X110570000Y-120300000D03*
X110570000Y-119800000D03*
X110570000Y-119300000D03*
X110570000Y-118800000D03*
X110570000Y-118300000D03*
X110570000Y-117800000D03*
X110570000Y-117300000D03*
X110570000Y-116800000D03*
X110570000Y-116300000D03*
X110570000Y-115800000D03*
X110570000Y-115300000D03*
X110570000Y-114800000D03*
X110570000Y-114300000D03*
X110570000Y-113800000D03*
X110570000Y-113300000D03*
X110570000Y-112800000D03*
X110570000Y-112300000D03*
X110570000Y-111800000D03*
X110570000Y-111300000D03*
X110570000Y-110800000D03*
X110570000Y-110300000D03*
X110570000Y-109800000D03*
X110570000Y-109300000D03*
X110570000Y-108800000D03*
X110570000Y-108300000D03*
D32*
X128525000Y-98100000D03*
X128525000Y-99050000D03*
X128525000Y-100000000D03*
X130725000Y-100000000D03*
X130725000Y-98100000D03*
X128850000Y-123650000D03*
X128850000Y-124600000D03*
X128850000Y-125550000D03*
X131050000Y-125550000D03*
X131050000Y-123650000D03*
X128375000Y-111325000D03*
X128375000Y-112275000D03*
X128375000Y-113225000D03*
X130575000Y-113225000D03*
X130575000Y-111325000D03*
X130575000Y-112275000D03*
D35*
X78800000Y-114500000D03*
X80000000Y-114500000D03*
X78800000Y-113300000D03*
X80000000Y-113300000D03*
X78800000Y-112000000D03*
X80000000Y-112000000D03*
X78800000Y-122100000D03*
X80000000Y-122100000D03*
X78800000Y-117000000D03*
X80000000Y-117000000D03*
X78800000Y-120800000D03*
X80000000Y-120800000D03*
X78800000Y-119700000D03*
X80000000Y-119700000D03*
X78800000Y-108100000D03*
X80000000Y-108100000D03*
X78800000Y-109500000D03*
X80000000Y-109500000D03*
X78800000Y-105600000D03*
X80000000Y-105600000D03*
X78800000Y-106800000D03*
X80000000Y-106800000D03*
X78800000Y-124700000D03*
X80000000Y-124700000D03*
X78800000Y-123400000D03*
X80000000Y-123400000D03*
X78800000Y-115700000D03*
X80000000Y-115700000D03*
X78800000Y-118500000D03*
X80000000Y-118500000D03*
X78800000Y-110700000D03*
X80000000Y-110700000D03*
D17*
X114550000Y-104000000D03*
X113450000Y-104000000D03*
D36*
X111770000Y-100150000D03*
X109230000Y-100150000D03*
X109230000Y-102850000D03*
X111770000Y-102850000D03*
M02*
