M48
;DRILL file {KiCad 4.0.1-stable} date 01/02/2016 19:28:05
;FORMAT={-:-/ absolute / inch / decimal}
FMAT,2
INCH,TZ
T1C0.012
T2C0.020
T3C0.040
T4C0.079
%
G90
G05
M72
T1
X2.9114Y-3.9065
X2.9469Y-5.4144
X3.0118Y-5.5118
X3.0187Y-3.81
X3.0696Y-5.4141
X3.0906Y-5.
X3.1063Y-5.4862
X3.1083Y-5.2815
X3.124Y-3.9195
X3.1417Y-4.9715
X3.1463Y-5.3767
X3.1476Y-5.1093
X3.1949Y-4.3396
X3.1957Y-4.6406
X3.1957Y-4.6909
X3.1959Y-4.5394
X3.1959Y-4.7933
X3.2087Y-5.4921
X3.215Y-3.9366
X3.2366Y-3.9803
X3.2386Y-4.9378
X3.2445Y-3.7195
X3.2445Y-3.7854
X3.2707Y-4.8061
X3.2716Y-5.1595
X3.2805Y-4.9833
X3.2815Y-3.6526
X3.2835Y-5.1988
X3.2854Y-4.0571
X3.3004Y-4.0886
X3.3201Y-4.7161
X3.3302Y-4.1649
X3.3307Y-5.1909
X3.3337Y-4.4671
X3.3346Y-5.1183
X3.3435Y-3.6516
X3.3602Y-3.7854
X3.3622Y-5.3543
X3.3691Y-5.2795
X3.3705Y-4.9587
X3.3705Y-5.0846
X3.378Y-5.3883
X3.3874Y-3.8914
X3.3883Y-4.8331
X3.4Y-3.9484
X3.4012Y-4.0043
X3.4055Y-4.0795
X3.4055Y-4.685
X3.4083Y-4.2461
X3.4193Y-3.9213
X3.4409Y-4.1939
X3.4449Y-4.3898
X3.4508Y-5.498
X3.4518Y-3.6693
X3.4695Y-5.3686
X3.473Y-5.2702
X3.4774Y-5.2254
X3.4813Y-4.248
X3.4872Y-5.1604
X3.5039Y-3.8583
X3.5207Y-5.4951
X3.5217Y-4.926
X3.5374Y-4.6752
X3.5374Y-4.7963
X3.5374Y-4.8789
X3.5413Y-4.2618
X3.5433Y-3.6772
X3.5463Y-4.5778
X3.5657Y-5.4988
X3.5728Y-5.3878
X3.622Y-3.8583
X3.626Y-3.6516
X3.626Y-5.498
X3.6427Y-3.939
X3.6614Y-4.252
X3.6791Y-4.1673
X3.685Y-3.6516
X3.7274Y-4.7785
X3.7274Y-4.9094
X3.7402Y-3.7795
X3.7402Y-4.1929
X3.75Y-3.6516
X3.7549Y-5.4242
X3.7707Y-5.0138
X3.7795Y-3.8386
X3.7844Y-3.9583
X3.7844Y-3.9587
X3.7864Y-3.915
X3.7953Y-4.7264
X3.7968Y-4.6058
X3.7992Y-4.4075
X3.815Y-4.2638
X3.8226Y-5.2458
X3.8366Y-4.6614
X3.8563Y-3.6654
X3.8583Y-3.9567
X3.8583Y-4.1339
X3.8628Y-5.1943
X3.8642Y-5.2628
X3.8661Y-4.6329
X3.8671Y-5.1417
X3.8701Y-4.747
X3.9006Y-4.9813
X3.937Y-4.0354
X3.9395Y-4.6919
X3.9537Y-4.2697
X4.0148Y-5.4902
X4.0157Y-3.6654
X4.06Y-4.9754
X4.0634Y-4.8776
X4.0699Y-5.4085
X4.0778Y-5.1959
X4.0778Y-5.31
X4.1122Y-4.2835
X4.1156Y-5.4779
X4.1486Y-4.9754
X4.1486Y-5.0492
X4.1486Y-5.1112
X4.1486Y-5.2215
X4.1486Y-5.373
X4.1772Y-4.6516
X4.1823Y-4.5817
X4.2047Y-4.9144
X4.2185Y-4.248
X4.2279Y-4.6599
X4.2411Y-4.6998
X4.2441Y-4.6102
X4.2463Y-4.55
X4.2638Y-4.9163
X4.3012Y-4.4016
X4.3051Y-4.4341
X4.3051Y-4.6604
X4.3839Y-5.3583
X4.3907Y-4.8957
X4.3942Y-4.2564
X4.4006Y-4.6772
X4.4016Y-4.7992
X4.4341Y-5.2244
X4.5059Y-4.4075
X4.545Y-4.23
X4.6067Y-5.5142
X4.7362Y-5.2717
X4.8996Y-4.8071
X4.9321Y-4.0217
X4.9345Y-3.9493
X4.9882Y-4.8307
X4.9882Y-4.9055
X5.Y-4.498
X5.0039Y-4.0866
X5.0049Y-5.0433
X5.0059Y-4.4203
X5.0167Y-3.8996
X5.0167Y-4.9528
X5.0207Y-3.7884
X5.0423Y-4.0236
X5.122Y-4.4951
X5.1344Y-5.1786
X5.189Y-5.5571
X5.2059Y-5.2051
X5.2087Y-4.0551
X5.2096Y-4.001
X5.2589Y-5.0522
X5.2619Y-4.6555
X5.2669Y-5.2035
X5.2707Y-4.5089
T2
X2.9134Y-5.4803
X3.0748Y-5.248
X3.4518Y-4.6211
X3.4921Y-4.437
X3.4931Y-4.5197
X3.6112Y-4.4213
X3.9409Y-3.7352
X3.9872Y-3.7756
X4.1014Y-3.8366
X4.1014Y-3.8986
X4.1929Y-3.7205
X4.1969Y-4.1181
X4.1978Y-4.06
X4.1988Y-4.0069
X4.251Y-3.8976
X4.3228Y-4.122
X4.4206Y-4.1594
X4.4803Y-4.1535
X4.5472Y-3.7205
X4.5581Y-4.123
X4.6132Y-5.4035
X4.685Y-4.2323
X4.7677Y-5.189
X4.8228Y-4.6063
X4.8307Y-5.4311
X4.8425Y-3.7205
X4.85Y-3.7677
X4.85Y-3.8632
X4.9004Y-5.1472
X4.9134Y-5.001
X4.9409Y-4.7835
X4.9715Y-5.436
X5.0059Y-3.6772
X5.1181Y-4.1732
X5.1299Y-5.4419
X5.1969Y-4.7835
X5.2165Y-4.2717
X5.2421Y-5.3494
X5.2559Y-4.0157
X5.2559Y-4.0748
X5.2559Y-4.1535
X5.2559Y-4.4094
X5.2667Y-5.124
X5.2687Y-4.8967
X5.2805Y-3.6801
T3
X2.9209Y-4.1071
X2.9209Y-4.2071
X2.9209Y-4.3071
X2.9209Y-4.4071
X2.9209Y-4.5071
X2.9209Y-4.6071
X2.9209Y-4.7071
X2.9209Y-4.8071
X2.9209Y-4.9071
X2.9209Y-5.0071
X2.9209Y-5.1071
X2.9209Y-5.2071
X3.0209Y-4.1071
X3.0209Y-4.2071
X3.0209Y-4.3071
X3.0209Y-4.4071
X3.0209Y-4.5071
X3.0209Y-4.6071
X3.0209Y-4.7071
X3.0209Y-4.8071
X3.0209Y-4.9071
X3.0209Y-5.0071
X3.0209Y-5.1071
X3.0209Y-5.2071
X4.55Y-3.9
X4.55Y-4.
X4.55Y-4.5
X4.55Y-4.6
X4.55Y-4.7
X4.55Y-4.8
X4.55Y-4.9
X4.55Y-5.
X4.55Y-5.1
X4.55Y-5.2
X4.65Y-3.9
X4.65Y-4.
X4.65Y-4.5
X4.65Y-4.6
X4.65Y-4.7
X4.65Y-4.8
X4.65Y-4.9
X4.65Y-5.
X4.65Y-5.1
X4.65Y-5.2
X4.85Y-4.1
X4.85Y-4.2
X4.85Y-4.3
X4.85Y-4.4
X4.85Y-4.5
T4
X3.52Y-3.98
X3.6Y-5.28
T0
M30
