G04 #@! TF.FileFunction,Legend,Bot*
%FSLAX46Y46*%
G04 Gerber Fmt 4.6, Leading zero omitted, Abs format (unit mm)*
G04 Created by KiCad (PCBNEW 4.0.1-stable) date 01/02/2016 19:28:03*
%MOMM*%
G01*
G04 APERTURE LIST*
%ADD10C,0.100000*%
%ADD11C,0.150000*%
G04 APERTURE END LIST*
D10*
D11*
X123910000Y-132130000D02*
X123910000Y-132830000D01*
X125110000Y-132830000D02*
X125110000Y-132130000D01*
X87040000Y-98335000D02*
X87540000Y-98335000D01*
X87540000Y-99285000D02*
X87040000Y-99285000D01*
X86650000Y-102675000D02*
X87150000Y-102675000D01*
X87150000Y-103625000D02*
X86650000Y-103625000D01*
X88904000Y-133383000D02*
X89404000Y-133383000D01*
X89404000Y-134333000D02*
X88904000Y-134333000D01*
X88904000Y-131351000D02*
X89404000Y-131351000D01*
X89404000Y-132301000D02*
X88904000Y-132301000D01*
X86525000Y-100375000D02*
X87025000Y-100375000D01*
X87025000Y-101325000D02*
X86525000Y-101325000D01*
X88904000Y-135923000D02*
X89404000Y-135923000D01*
X89404000Y-136873000D02*
X88904000Y-136873000D01*
X87075000Y-115200000D02*
X87075000Y-115900000D01*
X88275000Y-115900000D02*
X88275000Y-115200000D01*
X98964000Y-120742000D02*
X99664000Y-120742000D01*
X99664000Y-119542000D02*
X98964000Y-119542000D01*
X106950000Y-107840000D02*
X106250000Y-107840000D01*
X106250000Y-109040000D02*
X106950000Y-109040000D01*
X107858000Y-119030000D02*
X107858000Y-119730000D01*
X109058000Y-119730000D02*
X109058000Y-119030000D01*
X98202000Y-109058000D02*
X98902000Y-109058000D01*
X98902000Y-107858000D02*
X98202000Y-107858000D01*
X81746500Y-113464000D02*
X81365500Y-113464000D01*
X82762500Y-113464000D02*
X82381500Y-113464000D01*
X82381500Y-113464000D02*
X81746500Y-113083000D01*
X81746500Y-113083000D02*
X81746500Y-113845000D01*
X81746500Y-113845000D02*
X82381500Y-113464000D01*
X82381500Y-112956000D02*
X82381500Y-113972000D01*
X84064000Y-114364000D02*
X80524000Y-114364000D01*
X84064000Y-112564000D02*
X80524000Y-112564000D01*
X81492500Y-119814000D02*
X81111500Y-119814000D01*
X82508500Y-119814000D02*
X82127500Y-119814000D01*
X82127500Y-119814000D02*
X81492500Y-119433000D01*
X81492500Y-119433000D02*
X81492500Y-120195000D01*
X81492500Y-120195000D02*
X82127500Y-119814000D01*
X82127500Y-119306000D02*
X82127500Y-120322000D01*
X83810000Y-120714000D02*
X80270000Y-120714000D01*
X83810000Y-118914000D02*
X80270000Y-118914000D01*
X81746500Y-105844000D02*
X81365500Y-105844000D01*
X82762500Y-105844000D02*
X82381500Y-105844000D01*
X82381500Y-105844000D02*
X81746500Y-105463000D01*
X81746500Y-105463000D02*
X81746500Y-106225000D01*
X81746500Y-106225000D02*
X82381500Y-105844000D01*
X82381500Y-105336000D02*
X82381500Y-106352000D01*
X84064000Y-106744000D02*
X80524000Y-106744000D01*
X84064000Y-104944000D02*
X80524000Y-104944000D01*
X81492500Y-124132000D02*
X81111500Y-124132000D01*
X82508500Y-124132000D02*
X82127500Y-124132000D01*
X82127500Y-124132000D02*
X81492500Y-123751000D01*
X81492500Y-123751000D02*
X81492500Y-124513000D01*
X81492500Y-124513000D02*
X82127500Y-124132000D01*
X82127500Y-123624000D02*
X82127500Y-124640000D01*
X83810000Y-125032000D02*
X80270000Y-125032000D01*
X83810000Y-123232000D02*
X80270000Y-123232000D01*
X90175000Y-115475000D02*
X91375000Y-115475000D01*
X91375000Y-113725000D02*
X90175000Y-113725000D01*
X75206000Y-104066000D02*
X75714000Y-104066000D01*
X75206000Y-104574000D02*
X75714000Y-104574000D01*
X75206000Y-106606000D02*
X75714000Y-106606000D01*
X75206000Y-107114000D02*
X75714000Y-107114000D01*
X75206000Y-132514000D02*
X75714000Y-132514000D01*
X75206000Y-132006000D02*
X75714000Y-132006000D01*
X75206000Y-129974000D02*
X75714000Y-129974000D01*
X75206000Y-129466000D02*
X75714000Y-129466000D01*
X75206000Y-124386000D02*
X75714000Y-124386000D01*
X75206000Y-124894000D02*
X75714000Y-124894000D01*
X75206000Y-126926000D02*
X75714000Y-126926000D01*
X75206000Y-127434000D02*
X75714000Y-127434000D01*
X75206000Y-122354000D02*
X75714000Y-122354000D01*
X75206000Y-121846000D02*
X75714000Y-121846000D01*
X75206000Y-119814000D02*
X75714000Y-119814000D01*
X75206000Y-119306000D02*
X75714000Y-119306000D01*
X75206000Y-109146000D02*
X75714000Y-109146000D01*
X75206000Y-109654000D02*
X75714000Y-109654000D01*
X75206000Y-111686000D02*
X75714000Y-111686000D01*
X75206000Y-112194000D02*
X75714000Y-112194000D01*
X75206000Y-117274000D02*
X75714000Y-117274000D01*
X75206000Y-116766000D02*
X75714000Y-116766000D01*
X75206000Y-114734000D02*
X75714000Y-114734000D01*
X75206000Y-114226000D02*
X75714000Y-114226000D01*
X72666000Y-129466000D02*
X73174000Y-129466000D01*
X72666000Y-129974000D02*
X73174000Y-129974000D01*
X72666000Y-132006000D02*
X73174000Y-132006000D01*
X72666000Y-132514000D02*
X73174000Y-132514000D01*
X72666000Y-127434000D02*
X73174000Y-127434000D01*
X72666000Y-126926000D02*
X73174000Y-126926000D01*
X72666000Y-124894000D02*
X73174000Y-124894000D01*
X72666000Y-124386000D02*
X73174000Y-124386000D01*
X72666000Y-119306000D02*
X73174000Y-119306000D01*
X72666000Y-119814000D02*
X73174000Y-119814000D01*
X72666000Y-121846000D02*
X73174000Y-121846000D01*
X72666000Y-122354000D02*
X73174000Y-122354000D01*
X72666000Y-117274000D02*
X73174000Y-117274000D01*
X72666000Y-116766000D02*
X73174000Y-116766000D01*
X72666000Y-114734000D02*
X73174000Y-114734000D01*
X72666000Y-114226000D02*
X73174000Y-114226000D01*
X72666000Y-104066000D02*
X73174000Y-104066000D01*
X72666000Y-104574000D02*
X73174000Y-104574000D01*
X72666000Y-106606000D02*
X73174000Y-106606000D01*
X72666000Y-107114000D02*
X73174000Y-107114000D01*
X72666000Y-112194000D02*
X73174000Y-112194000D01*
X72666000Y-111686000D02*
X73174000Y-111686000D01*
X72666000Y-109654000D02*
X73174000Y-109654000D01*
X72666000Y-109146000D02*
X73174000Y-109146000D01*
X76730000Y-102770000D02*
X77880000Y-102770000D01*
X77880000Y-102770000D02*
X77880000Y-104320000D01*
X70126000Y-104193000D02*
X64157000Y-104193000D01*
X64157000Y-104193000D02*
X64157000Y-104447000D01*
X64157000Y-104447000D02*
X69999000Y-104447000D01*
X69999000Y-104447000D02*
X69999000Y-104320000D01*
X69999000Y-104320000D02*
X64157000Y-104320000D01*
X72666000Y-123370000D02*
X70126000Y-123370000D01*
X72666000Y-123370000D02*
X72666000Y-125910000D01*
X72666000Y-125910000D02*
X70126000Y-125910000D01*
X70126000Y-124386000D02*
X64030000Y-124386000D01*
X64030000Y-124386000D02*
X64030000Y-124894000D01*
X64030000Y-124894000D02*
X70126000Y-124894000D01*
X70126000Y-125910000D02*
X70126000Y-123370000D01*
X70126000Y-128450000D02*
X70126000Y-125910000D01*
X64030000Y-127434000D02*
X70126000Y-127434000D01*
X64030000Y-126926000D02*
X64030000Y-127434000D01*
X70126000Y-126926000D02*
X64030000Y-126926000D01*
X72666000Y-128450000D02*
X70126000Y-128450000D01*
X72666000Y-125910000D02*
X72666000Y-128450000D01*
X72666000Y-125910000D02*
X70126000Y-125910000D01*
X72666000Y-130990000D02*
X70126000Y-130990000D01*
X72666000Y-130990000D02*
X72666000Y-133530000D01*
X70126000Y-132006000D02*
X64030000Y-132006000D01*
X64030000Y-132006000D02*
X64030000Y-132514000D01*
X64030000Y-132514000D02*
X70126000Y-132514000D01*
X70126000Y-133530000D02*
X70126000Y-130990000D01*
X70126000Y-130990000D02*
X70126000Y-128450000D01*
X64030000Y-129974000D02*
X70126000Y-129974000D01*
X64030000Y-129466000D02*
X64030000Y-129974000D01*
X70126000Y-129466000D02*
X64030000Y-129466000D01*
X72666000Y-130990000D02*
X70126000Y-130990000D01*
X72666000Y-128450000D02*
X72666000Y-130990000D01*
X72666000Y-128450000D02*
X70126000Y-128450000D01*
X72666000Y-133530000D02*
X70126000Y-133530000D01*
X72666000Y-113210000D02*
X70126000Y-113210000D01*
X72666000Y-113210000D02*
X72666000Y-115750000D01*
X72666000Y-115750000D02*
X70126000Y-115750000D01*
X70126000Y-114226000D02*
X64030000Y-114226000D01*
X64030000Y-114226000D02*
X64030000Y-114734000D01*
X64030000Y-114734000D02*
X70126000Y-114734000D01*
X70126000Y-115750000D02*
X70126000Y-113210000D01*
X70126000Y-118290000D02*
X70126000Y-115750000D01*
X64030000Y-117274000D02*
X70126000Y-117274000D01*
X64030000Y-116766000D02*
X64030000Y-117274000D01*
X70126000Y-116766000D02*
X64030000Y-116766000D01*
X72666000Y-118290000D02*
X70126000Y-118290000D01*
X72666000Y-115750000D02*
X72666000Y-118290000D01*
X72666000Y-115750000D02*
X70126000Y-115750000D01*
X72666000Y-120830000D02*
X70126000Y-120830000D01*
X72666000Y-120830000D02*
X72666000Y-123370000D01*
X72666000Y-123370000D02*
X70126000Y-123370000D01*
X70126000Y-121846000D02*
X64030000Y-121846000D01*
X64030000Y-121846000D02*
X64030000Y-122354000D01*
X64030000Y-122354000D02*
X70126000Y-122354000D01*
X70126000Y-123370000D02*
X70126000Y-120830000D01*
X70126000Y-120830000D02*
X70126000Y-118290000D01*
X64030000Y-119814000D02*
X70126000Y-119814000D01*
X64030000Y-119306000D02*
X64030000Y-119814000D01*
X70126000Y-119306000D02*
X64030000Y-119306000D01*
X72666000Y-120830000D02*
X70126000Y-120830000D01*
X72666000Y-118290000D02*
X72666000Y-120830000D01*
X72666000Y-118290000D02*
X70126000Y-118290000D01*
X72666000Y-108130000D02*
X70126000Y-108130000D01*
X72666000Y-108130000D02*
X72666000Y-110670000D01*
X72666000Y-110670000D02*
X70126000Y-110670000D01*
X70126000Y-109146000D02*
X64030000Y-109146000D01*
X64030000Y-109146000D02*
X64030000Y-109654000D01*
X64030000Y-109654000D02*
X70126000Y-109654000D01*
X70126000Y-110670000D02*
X70126000Y-108130000D01*
X70126000Y-113210000D02*
X70126000Y-110670000D01*
X64030000Y-112194000D02*
X70126000Y-112194000D01*
X64030000Y-111686000D02*
X64030000Y-112194000D01*
X70126000Y-111686000D02*
X64030000Y-111686000D01*
X72666000Y-113210000D02*
X70126000Y-113210000D01*
X72666000Y-110670000D02*
X72666000Y-113210000D01*
X72666000Y-110670000D02*
X70126000Y-110670000D01*
X72666000Y-105590000D02*
X70126000Y-105590000D01*
X72666000Y-105590000D02*
X72666000Y-108130000D01*
X72666000Y-108130000D02*
X70126000Y-108130000D01*
X70126000Y-106606000D02*
X64030000Y-106606000D01*
X64030000Y-106606000D02*
X64030000Y-107114000D01*
X64030000Y-107114000D02*
X70126000Y-107114000D01*
X70126000Y-108130000D02*
X70126000Y-105590000D01*
X70126000Y-105590000D02*
X70126000Y-103050000D01*
X64030000Y-104574000D02*
X70126000Y-104574000D01*
X64030000Y-104066000D02*
X64030000Y-104574000D01*
X70126000Y-104066000D02*
X64030000Y-104066000D01*
X72666000Y-105590000D02*
X70126000Y-105590000D01*
X72666000Y-103050000D02*
X72666000Y-105590000D01*
X72666000Y-103050000D02*
X70126000Y-103050000D01*
X106930000Y-116095000D02*
X106430000Y-116095000D01*
X106430000Y-115045000D02*
X106930000Y-115045000D01*
X106800000Y-119900000D02*
X106300000Y-119900000D01*
X106300000Y-118850000D02*
X106800000Y-118850000D01*
X106930000Y-117619000D02*
X106430000Y-117619000D01*
X106430000Y-116569000D02*
X106930000Y-116569000D01*
X97299000Y-118622000D02*
X97299000Y-119122000D01*
X96249000Y-119122000D02*
X96249000Y-118622000D01*
M02*
